<svg width="28" height="28" viewBox="0 0 28 28" fill="none" xmlns="http://www.w3.org/2000/svg">
<path d="M26.8179 25.972L20.9826 20.0568C22.9818 17.8448 24.0348 14.9426 23.9173 11.9686C23.7998 8.99459 22.521 6.18385 20.3533 4.1352C18.1857 2.08656 15.3006 0.961949 12.3128 1.00098C9.32487 1.04002 6.47039 2.2396 4.35746 4.34417C2.24453 6.44875 1.04018 9.29193 1.00099 12.268C0.961798 15.244 2.09087 18.1177 4.14766 20.2767C6.20445 22.4358 9.02636 23.7095 12.0122 23.8266C14.998 23.9437 17.9117 22.8948 20.1325 20.9035L25.9679 26.8187C26.0234 26.8755 26.0897 26.9209 26.163 26.952C26.2363 26.9831 26.315 26.9994 26.3947 27C26.4743 27.0005 26.5533 26.9853 26.627 26.9552C26.7007 26.9251 26.7676 26.8807 26.8239 26.8246C26.8802 26.7685 26.9248 26.7018 26.955 26.6284C26.9853 26.555 27.0005 26.4764 27 26.397C26.9994 26.3177 26.983 26.2393 26.9518 26.1663C26.9205 26.0933 26.875 26.0273 26.8179 25.972ZM12.5075 22.64C10.4867 22.6402 8.51127 22.0436 6.83092 20.9255C5.15057 19.8074 3.84082 18.2182 3.06727 16.3587C2.29372 14.4992 2.09113 12.453 2.4851 10.4788C2.87907 8.50467 3.85192 6.6912 5.28063 5.26773C6.70934 3.84427 8.52974 2.87474 10.5116 2.48176C12.4935 2.08877 14.5479 2.28997 16.415 3.05992C18.2821 3.82987 19.8781 5.13399 21.0011 6.80736C22.1241 8.48074 22.7237 10.4482 22.7241 12.461C22.7199 15.1586 21.6422 17.7445 19.7271 19.652C17.812 21.5595 15.2158 22.6329 12.5075 22.6371V22.64Z" fill="#0050A0" stroke="#0050A0" stroke-width="0.5"/>
</svg>
