<svg width="20" height="24" viewBox="0 0 20 24" fill="none" xmlns="http://www.w3.org/2000/svg">
<path d="M11.3274 4.1185C11.1967 4.1185 11.0713 4.06656 10.9788 3.9741C10.8863 3.88165 10.8344 3.75625 10.8344 3.6255V1.9705C10.8344 1.70926 10.7306 1.45872 10.5459 1.274C10.3612 1.08928 10.1106 0.9855 9.84941 0.9855C9.58817 0.9855 9.33763 1.08928 9.15291 1.274C8.96818 1.45872 8.86441 1.70926 8.86441 1.9705V3.6255C8.86741 3.69204 8.85689 3.7585 8.83349 3.82087C8.81009 3.88324 8.7743 3.94021 8.72827 3.98836C8.68224 4.03651 8.62693 4.07484 8.56569 4.10102C8.50444 4.1272 8.43852 4.1407 8.37191 4.1407C8.3053 4.1407 8.23938 4.1272 8.17813 4.10102C8.11688 4.07484 8.06157 4.03651 8.01554 3.98836C7.96951 3.94021 7.93372 3.88324 7.91032 3.82087C7.88692 3.7585 7.87641 3.69204 7.87941 3.6255V1.9705C7.87941 1.44789 8.08701 0.946687 8.45655 0.577146C8.82609 0.207606 9.3273 0 9.84991 0C10.3725 0 10.8737 0.207606 11.2433 0.577146C11.6128 0.946687 11.8204 1.44789 11.8204 1.9705V3.6255C11.8205 3.69028 11.8079 3.75445 11.7831 3.81432C11.7584 3.87419 11.7221 3.92859 11.6763 3.9744C11.6305 4.0202 11.5761 4.05651 11.5162 4.08124C11.4564 4.10597 11.3922 4.11863 11.3274 4.1185Z" fill="#323250"/>
<path d="M9.85084 23.6468C8.9367 23.6457 8.06031 23.2821 7.41391 22.6357C6.76751 21.9893 6.4039 21.1129 6.40284 20.1988C6.39984 20.1322 6.41036 20.0658 6.43376 20.0034C6.45716 19.9411 6.49295 19.8841 6.53898 19.8359C6.58501 19.7878 6.64031 19.7495 6.70156 19.7233C6.76281 19.6971 6.82873 19.6836 6.89534 19.6836C6.96195 19.6836 7.02787 19.6971 7.08912 19.7233C7.15037 19.7495 7.20568 19.7878 7.25171 19.8359C7.29774 19.8841 7.33353 19.9411 7.35693 20.0034C7.38033 20.0658 7.39084 20.1322 7.38784 20.1988C7.38784 20.852 7.64734 21.4785 8.10924 21.9404C8.57114 22.4023 9.19762 22.6618 9.85084 22.6618C10.5041 22.6618 11.1305 22.4023 11.5924 21.9404C12.0543 21.4785 12.3138 20.852 12.3138 20.1988C12.3108 20.1322 12.3214 20.0658 12.3448 20.0034C12.3682 19.9411 12.404 19.8841 12.45 19.8359C12.496 19.7878 12.5513 19.7495 12.6126 19.7233C12.6738 19.6971 12.7397 19.6836 12.8063 19.6836C12.873 19.6836 12.9389 19.6971 13.0001 19.7233C13.0614 19.7495 13.1167 19.7878 13.1627 19.8359C13.2087 19.8841 13.2445 19.9411 13.2679 20.0034C13.2913 20.0658 13.3018 20.1322 13.2988 20.1988C13.2978 21.1129 12.9342 21.9893 12.2878 22.6357C11.6414 23.2821 10.765 23.6457 9.85084 23.6468Z" fill="#323250"/>
<path d="M18.2249 20.689H1.47692C1.17504 20.6888 0.880475 20.5962 0.632826 20.4235C0.385177 20.2509 0.196325 20.0066 0.0916671 19.7234C-0.0129906 19.4403 -0.0284352 19.1319 0.0474107 18.8397C0.123257 18.5475 0.286755 18.2855 0.51592 18.089C1.28002 17.4458 1.89418 16.6431 2.31533 15.7374C2.73648 14.8317 2.95444 13.8449 2.95392 12.846V9.85604C3.01099 8.065 3.76259 6.36642 5.0497 5.11966C6.33682 3.87291 8.05848 3.17578 9.85042 3.17578C11.6424 3.17578 13.364 3.87291 14.6511 5.11966C15.9382 6.36642 16.6899 8.065 16.7469 9.85604V12.849C16.746 13.8461 16.963 14.8314 17.3827 15.7358C17.8025 16.6403 18.4148 17.4421 19.1769 18.085C19.4086 18.2804 19.5747 18.5422 19.6526 18.8351C19.7305 19.1279 19.7165 19.4377 19.6125 19.7223C19.5085 20.007 19.3195 20.2527 19.0711 20.4264C18.8227 20.6 18.527 20.6931 18.2239 20.693L18.2249 20.689ZM9.85092 3.94104C8.28302 3.94263 6.77985 4.56645 5.67155 5.6755C4.56326 6.78455 3.94045 8.28814 3.93992 9.85604V12.849C3.941 13.9895 3.69284 15.1164 3.21281 16.1509C2.73278 17.1854 2.03248 18.1025 1.16092 18.838C1.08316 18.9028 1.02728 18.99 1.00088 19.0877C0.97448 19.1854 0.978855 19.2889 1.01341 19.384C1.04796 19.4791 1.11101 19.5613 1.19395 19.6193C1.2769 19.6773 1.37571 19.7083 1.47692 19.708H18.2249C18.3255 19.7078 18.4236 19.6768 18.5061 19.6192C18.5885 19.5616 18.6514 19.4801 18.6862 19.3857C18.7211 19.2914 18.7262 19.1886 18.7009 19.0912C18.6757 18.9939 18.6212 18.9066 18.5449 18.841C17.6726 18.1053 16.9715 17.1878 16.4908 16.1528C16.0101 15.1178 15.7613 13.9902 15.7619 12.849V9.85604C15.7603 8.28883 15.1371 6.78627 14.0289 5.67808C12.9207 4.5699 11.4181 3.94663 9.85092 3.94504V3.94104Z" fill="#323250"/>
</svg>
