<svg width="21" height="21" viewBox="0 0 21 21" fill="none" xmlns="http://www.w3.org/2000/svg">
<path d="M10.5572 14.5039C10.5089 14.5039 10.4611 14.5133 10.4165 14.5317C10.3719 14.55 10.3313 14.5769 10.2972 14.6108C10.263 14.6447 10.2359 14.6849 10.2174 14.7292C10.199 14.7735 10.1895 14.821 10.1895 14.8689V15.5989C10.1895 15.6957 10.2282 15.7885 10.2972 15.857C10.3661 15.9254 10.4597 15.9639 10.5572 15.9639C10.6547 15.9639 10.7483 15.9254 10.8173 15.857C10.8862 15.7885 10.925 15.6957 10.925 15.5989V14.8689C10.925 14.821 10.9155 14.7735 10.897 14.7292C10.8785 14.6849 10.8514 14.6447 10.8173 14.6108C10.7831 14.5769 10.7426 14.55 10.6979 14.5317C10.6533 14.5133 10.6055 14.5039 10.5572 14.5039Z" fill="#323250" stroke="#323250" stroke-width="0.5"/>
<path d="M10.5976 4.28516H10.5553C9.77544 4.28542 9.02763 4.59307 8.47629 5.14046C7.92496 5.68785 7.61523 6.43016 7.61523 7.20416C7.61523 7.30096 7.65398 7.3938 7.72295 7.46225C7.79192 7.5307 7.88546 7.56916 7.98299 7.56916C8.08053 7.56916 8.17407 7.5307 8.24304 7.46225C8.31201 7.3938 8.35075 7.30096 8.35075 7.20416C8.35072 6.91398 8.40882 6.62669 8.52167 6.359C8.63452 6.09131 8.79987 5.84857 9.0081 5.64487C9.21633 5.44118 9.46328 5.28062 9.73461 5.17251C10.0059 5.0644 10.2962 5.01091 10.5885 5.01516C11.1594 5.03341 11.7018 5.26663 12.1056 5.66744C12.5095 6.06826 12.7444 6.60661 12.7628 7.17316C12.7698 7.54472 12.6808 7.91187 12.5045 8.2397C12.3281 8.56753 12.0702 8.84514 11.7553 9.04616C11.2657 9.36989 10.866 9.81069 10.5931 10.328C10.3202 10.8452 10.1828 11.4224 10.1936 12.0062V13.0432C10.1936 13.14 10.2323 13.2328 10.3013 13.3013C10.3703 13.3697 10.4638 13.4082 10.5613 13.4082C10.6589 13.4082 10.7524 13.3697 10.8214 13.3013C10.8903 13.2328 10.9291 13.14 10.9291 13.0432V12.0052C10.9214 11.5444 11.0289 11.0889 11.2418 10.6794C11.4547 10.2698 11.7664 9.91898 12.1492 9.65816C12.5708 9.39083 12.9161 9.02057 13.1521 8.58284C13.3882 8.1451 13.5071 7.65455 13.4973 7.15816C13.4804 6.40062 13.1693 5.67887 12.6289 5.14355C12.0886 4.60822 11.3609 4.3007 10.5976 4.28516Z" fill="#323250" stroke="#323250" stroke-width="0.5"/>
<path d="M10.5587 1C8.66816 1 6.82009 1.5564 5.24817 2.59885C3.67625 3.64129 2.45109 5.12296 1.72762 6.85648C1.00414 8.59 0.814848 10.4975 1.18367 12.3378C1.5525 14.1781 2.46287 15.8685 3.79968 17.1953C5.13649 18.5221 6.83968 19.4257 8.69389 19.7917C10.5481 20.1578 12.47 19.9699 14.2166 19.2518C15.9633 18.5338 17.4561 17.3178 18.5065 15.7577C19.5568 14.1976 20.1174 12.3634 20.1174 10.487C20.1139 7.97195 19.1057 5.56089 17.3139 3.78248C15.522 2.00406 13.0928 1.00344 10.5587 1V1ZM10.5587 19.245C8.81344 19.245 7.10737 18.7314 5.65624 17.769C4.20511 16.8067 3.0741 15.4389 2.40621 13.8385C1.73833 12.2382 1.56358 10.4773 1.90407 8.7784C2.24455 7.07951 3.08497 5.51899 4.31906 4.29416C5.55314 3.06933 7.12546 2.23521 8.83718 1.89728C10.5489 1.55935 12.3232 1.73279 13.9356 2.39566C15.548 3.05854 16.9261 4.18107 17.8957 5.62132C18.8653 7.06156 19.3829 8.75483 19.3829 10.487C19.3802 12.809 18.4497 15.035 16.7954 16.6769C15.1411 18.3188 12.8982 19.2424 10.5587 19.245Z" fill="#323250" stroke="#323250" stroke-width="0.5"/>
</svg>
