<svg width="22" height="21" viewBox="0 0 22 21" fill="none" xmlns="http://www.w3.org/2000/svg">
<path d="M13.4517 11.1995C13.3918 11.1969 13.3326 11.2123 13.2816 11.2436C13.2306 11.275 13.1901 11.3209 13.1654 11.3754C13.1407 11.4299 13.1329 11.4906 13.1429 11.5497C13.153 11.6087 13.1805 11.6633 13.2219 11.7066C13.2633 11.7499 13.3167 11.7798 13.3752 11.7924C13.4337 11.8051 13.4947 11.8 13.5503 11.7777C13.6058 11.7554 13.6535 11.717 13.6871 11.6675C13.7206 11.6179 13.7386 11.5594 13.7387 11.4995C13.7396 11.4609 13.7329 11.4226 13.719 11.3866C13.705 11.3506 13.6841 11.3178 13.6575 11.2899C13.6308 11.262 13.5989 11.2397 13.5636 11.2242C13.5283 11.2087 13.4902 11.2003 13.4517 11.1995Z" fill="#323250" stroke="#323250" stroke-width="0.2"/>
<path d="M17.3325 17.3867H16.8595L15.5705 10.1617C15.4546 9.52327 15.1181 8.9458 14.6199 8.53003C14.1218 8.11426 13.4934 7.88658 12.8445 7.88672H9.15352C8.50429 7.88647 7.87561 8.11436 7.37733 8.53056C6.87906 8.94677 6.54287 9.52481 6.42751 10.1637L5.13852 17.3867H4.66551C4.35069 17.3872 4.04893 17.5126 3.82641 17.7353C3.60389 17.958 3.47878 18.2599 3.47852 18.5747V20.1577C3.47852 20.2102 3.48886 20.2623 3.50896 20.3108C3.52907 20.3593 3.55853 20.4034 3.59567 20.4406C3.63282 20.4777 3.67691 20.5072 3.72544 20.5273C3.77397 20.5474 3.82599 20.5577 3.87852 20.5577H18.1285C18.181 20.5577 18.2331 20.5474 18.2816 20.5273C18.3301 20.5072 18.3742 20.4777 18.4114 20.4406C18.4485 20.4034 18.478 20.3593 18.4981 20.3108C18.5182 20.2623 18.5285 20.2102 18.5285 20.1577V18.5747C18.5284 18.4181 18.4973 18.263 18.4371 18.1184C18.3768 17.9738 18.2886 17.8425 18.1774 17.7321C18.0663 17.6217 17.9344 17.5344 17.7894 17.4751C17.6444 17.4158 17.4892 17.3858 17.3325 17.3867ZM7.20651 10.3037C7.28923 9.84767 7.52948 9.43513 7.88533 9.13814C8.24118 8.84114 8.69002 8.67855 9.15352 8.67873H12.8445C13.3079 8.67851 13.7566 8.84096 14.1124 9.13776C14.4683 9.43455 14.7086 9.84684 14.7915 10.3027L16.0555 17.3867H5.94351L7.20651 10.3037ZM17.7285 19.7617H4.27052V18.5737C4.27052 18.4676 4.31266 18.3659 4.38767 18.2909C4.46269 18.2159 4.56443 18.1737 4.67052 18.1737H17.3325C17.4386 18.1737 17.5403 18.2159 17.6154 18.2909C17.6904 18.3659 17.7325 18.4676 17.7325 18.5737L17.7285 19.7617Z" fill="#323250" stroke="#323250" stroke-width="0.2"/>
<path d="M14.3776 15.0293L13.9566 12.6163C13.9509 12.5784 13.9377 12.542 13.9177 12.5092C13.8978 12.4764 13.8714 12.448 13.8403 12.4255C13.8092 12.4031 13.7739 12.3871 13.7365 12.3785C13.6991 12.3698 13.6604 12.3688 13.6226 12.3753C13.5466 12.3919 13.4801 12.4374 13.437 12.5022C13.3939 12.5669 13.3776 12.6458 13.3916 12.7223L13.8126 15.1353C13.8183 15.1732 13.8315 15.2097 13.8515 15.2424C13.8715 15.2752 13.8978 15.3036 13.9289 15.3261C13.96 15.3485 13.9953 15.3646 14.0327 15.3732C14.0701 15.3818 14.1088 15.3829 14.1466 15.3763C14.2226 15.3597 14.2891 15.3142 14.3322 15.2495C14.3753 15.1848 14.3916 15.1058 14.3776 15.0293Z" fill="#323250" stroke="#323250" stroke-width="0.2"/>
<path d="M21.4521 11.1992H17.798C17.6853 11.1992 17.5772 11.244 17.4975 11.3237C17.4178 11.4034 17.373 11.5115 17.373 11.6242C17.373 11.7369 17.4178 11.845 17.4975 11.9247C17.5772 12.0044 17.6853 12.0492 17.798 12.0492H21.4521C21.5648 12.0492 21.6729 12.0044 21.7526 11.9247C21.8323 11.845 21.877 11.7369 21.877 11.6242C21.877 11.5115 21.8323 11.4034 21.7526 11.3237C21.6729 11.244 21.5648 11.1992 21.4521 11.1992Z" fill="#323250" stroke="#323250" stroke-width="0.2"/>
<path d="M4.20009 11.1992H0.546094C0.433377 11.1992 0.325276 11.244 0.245573 11.3237C0.16587 11.4034 0.121094 11.5115 0.121094 11.6242C0.121094 11.7369 0.16587 11.845 0.245573 11.9247C0.325276 12.0044 0.433377 12.0492 0.546094 12.0492H4.20009C4.31281 12.0492 4.42091 12.0044 4.50061 11.9247C4.58032 11.845 4.62509 11.7369 4.62509 11.6242C4.62509 11.5115 4.58032 11.4034 4.50061 11.3237C4.42091 11.244 4.31281 11.1992 4.20009 11.1992Z" fill="#323250" stroke="#323250" stroke-width="0.2"/>
<path d="M18.5116 4.11224C18.432 4.03286 18.3241 3.98828 18.2116 3.98828C18.0991 3.98828 17.9913 4.03286 17.9116 4.11224L15.5116 6.51225C15.4396 6.59326 15.4013 6.69873 15.4045 6.80707C15.4077 6.91541 15.4521 7.01844 15.5288 7.09509C15.6054 7.17173 15.7084 7.21619 15.8168 7.21938C15.9251 7.22257 16.0306 7.18425 16.1116 7.11224L18.5116 4.71224C18.591 4.63258 18.6356 4.5247 18.6356 4.41224C18.6356 4.29978 18.591 4.1919 18.5116 4.11224Z" fill="#323250" stroke="#323250" stroke-width="0.2"/>
<path d="M6.49229 6.51534L4.09229 4.11533C4.05381 4.07204 4.0069 4.03707 3.95442 4.01257C3.90194 3.98806 3.84501 3.97454 3.78712 3.97284C3.72923 3.97114 3.6716 3.98128 3.61777 4.00266C3.56394 4.02403 3.51505 4.05618 3.47409 4.09714C3.43314 4.13809 3.40098 4.18699 3.37961 4.24082C3.35823 4.29464 3.34809 4.35227 3.34979 4.41016C3.3515 4.46806 3.36502 4.52499 3.38952 4.57747C3.41402 4.62995 3.449 4.67686 3.49229 4.71533L5.89229 7.11533C5.97331 7.18734 6.07878 7.22566 6.18712 7.22247C6.29546 7.21928 6.39849 7.17482 6.47513 7.09818C6.55177 7.02153 6.59624 6.91851 6.59943 6.81017C6.60262 6.70182 6.56429 6.59635 6.49229 6.51534Z" fill="#323250" stroke="#323250" stroke-width="0.2"/>
<path d="M10.9992 1C10.8865 1 10.7784 1.04478 10.6987 1.12448C10.619 1.20418 10.5742 1.31228 10.5742 1.425V4.825C10.5742 4.93772 10.619 5.04582 10.6987 5.12552C10.7784 5.20522 10.8865 5.25 10.9992 5.25C11.1119 5.25 11.22 5.20522 11.2997 5.12552C11.3794 5.04582 11.4242 4.93772 11.4242 4.825V1.425C11.4242 1.31228 11.3794 1.20418 11.2997 1.12448C11.22 1.04478 11.1119 1 10.9992 1Z" fill="#323250" stroke="#323250" stroke-width="0.2"/>
</svg>
