<svg width="23" height="21" viewBox="0 0 23 21" fill="none" xmlns="http://www.w3.org/2000/svg">
<path d="M19.5247 5.80629H19.38V5.71887C19.3777 5.02362 19.0894 4.35747 18.5779 3.86575C18.0664 3.37403 17.3733 3.09666 16.6499 3.09416H12.2504C12.2228 3.09414 12.1955 3.08861 12.1702 3.07791C12.1449 3.06721 12.1222 3.05159 12.1036 3.03202L10.5067 1.35419C10.2505 1.08554 9.93908 0.870905 9.59213 0.723873C9.24519 0.57684 8.87027 0.500608 8.49108 0.5H3.23019C2.50671 0.502499 1.81362 0.779866 1.30214 1.27158C0.790661 1.7633 0.50231 2.42946 0.5 3.12471L0.5 17.8871C0.502312 18.5825 0.790814 19.2489 1.30253 19.7406C1.81424 20.2324 2.50761 20.5096 3.23128 20.5118H19.5247C20.2484 20.5096 20.9418 20.2324 21.4535 19.7406C21.9652 19.2489 22.2537 18.5825 22.256 17.8871V8.431C22.2537 7.73557 21.9652 7.06925 21.4535 6.57751C20.9418 6.08576 20.2484 5.80851 19.5247 5.80629ZM3.47789 19.7693H3.23128C2.7122 19.7684 2.21464 19.5698 1.8477 19.217C1.48076 18.8642 1.27437 18.3859 1.27379 17.8871V3.12471C1.27408 2.6258 1.48037 2.14738 1.84738 1.7945C2.21439 1.44161 2.71211 1.2431 3.23128 1.24254H8.49218C8.76412 1.24269 9.03306 1.29717 9.28193 1.40251C9.5308 1.50786 9.75416 1.66177 9.93783 1.85448L11.5325 3.53337C11.6237 3.62911 11.7347 3.7056 11.8582 3.75799C11.9818 3.81039 12.1154 3.83755 12.2504 3.83776H16.6499C17.1688 3.83832 17.6664 4.03669 18.0334 4.38934C18.4003 4.742 18.6068 5.22014 18.6073 5.71887V5.80629H8.17214C7.44695 5.80629 6.75133 6.08255 6.23773 6.57454C5.72412 7.06653 5.43441 7.73411 5.43209 8.431V17.8871C5.43151 18.3859 5.22512 18.8642 4.85818 19.217C4.49124 19.5698 3.99368 19.7684 3.4746 19.7693H3.47789ZM21.4833 17.8871C21.4827 18.3859 21.2763 18.8642 20.9094 19.217C20.5424 19.5698 20.0449 19.7684 19.5258 19.7693H5.37948C5.6419 19.525 5.85049 19.2325 5.99284 18.9091C6.13519 18.5858 6.20838 18.2382 6.20807 17.8871V8.431C6.20822 8.18343 6.25916 7.93831 6.35798 7.70967C6.4568 7.48104 6.60156 7.27337 6.78399 7.09855C6.96641 6.92374 7.18291 6.7852 7.42111 6.69088C7.6593 6.59655 7.91452 6.54828 8.17214 6.54884H19.5247C20.044 6.54939 20.5418 6.74787 20.909 7.10073C21.2762 7.45358 21.4827 7.93199 21.4833 8.431V17.8871Z" fill="#323250" stroke="#323250" stroke-width="0.2"/>
<path d="M13.8485 13.1996C14.3072 13.1996 14.7556 13.0688 15.137 12.824C15.5183 12.5791 15.8156 12.231 15.9911 11.8238C16.1667 11.4165 16.2126 10.9684 16.1231 10.5361C16.0336 10.1038 15.8127 9.70664 15.4884 9.39495C15.164 9.08326 14.7508 8.871 14.3009 8.78501C13.8511 8.69902 13.3847 8.74316 12.961 8.91184C12.5372 9.08053 12.175 9.36618 11.9202 9.73269C11.6653 10.0992 11.5293 10.5301 11.5293 10.9709C11.5293 11.2636 11.5893 11.5534 11.7058 11.8238C11.8224 12.0941 11.9932 12.3398 12.2086 12.5468C12.4239 12.7537 12.6796 12.9179 12.961 13.0299C13.2423 13.1419 13.5439 13.1996 13.8485 13.1996ZM13.8485 9.48474C14.1544 9.48474 14.4533 9.5719 14.7077 9.7352C14.962 9.8985 15.1602 10.1306 15.2772 10.4022C15.3943 10.6737 15.4249 10.9725 15.3653 11.2608C15.3056 11.5491 15.1583 11.8139 14.942 12.0217C14.7257 12.2296 14.4502 12.3711 14.1502 12.4285C13.8502 12.4858 13.5392 12.4564 13.2567 12.3439C12.9741 12.2314 12.7325 12.0409 12.5626 11.7965C12.3927 11.5521 12.302 11.2648 12.302 10.9709C12.302 10.5767 12.4649 10.1987 12.7549 9.92002C13.045 9.64131 13.4383 9.48474 13.8485 9.48474Z" fill="#323250" stroke="#323250" stroke-width="0.2"/>
<path d="M13.8478 13.918C12.94 13.9188 12.0696 14.2657 11.4276 14.8826C10.7857 15.4995 10.4247 16.3359 10.4238 17.2083C10.4238 17.3069 10.4646 17.4015 10.5371 17.4712C10.6097 17.541 10.7081 17.5801 10.8107 17.5801H16.8849C16.9875 17.5801 17.0859 17.541 17.1584 17.4712C17.231 17.4015 17.2718 17.3069 17.2718 17.2083C17.2709 16.3359 16.9099 15.4995 16.2679 14.8826C15.626 14.2657 14.7556 13.9188 13.8478 13.918ZM11.225 16.8365C11.3188 16.2327 11.6351 15.6812 12.1164 15.2827C12.5977 14.8841 13.2119 14.6648 13.8473 14.6648C14.4826 14.6648 15.0968 14.8841 15.5781 15.2827C16.0594 15.6812 16.3757 16.2327 16.4695 16.8365H11.225Z" fill="#323250" stroke="#323250" stroke-width="0.2"/>
</svg>
