<svg width="36" height="36" viewBox="0 0 36 36" fill="none" xmlns="http://www.w3.org/2000/svg">
<circle cx="18" cy="18" r="18" fill="#0050A0" fill-opacity="0.05"/>
<path d="M17.847 7C15.7014 7.0004 13.604 7.63701 11.8202 8.82936C10.0363 10.0217 8.64609 11.7162 7.82526 13.6987C7.00443 15.6811 6.78987 17.8624 7.20871 19.9668C7.62755 22.0711 8.66097 24.004 10.1783 25.5211C11.6957 27.0382 13.6288 28.0712 15.7332 28.4897C17.8377 28.9081 20.0189 28.6932 22.0012 27.872C23.9835 27.0508 25.6777 25.6602 26.8698 23.8762C28.0618 22.0921 28.698 19.9946 28.698 17.849C28.6948 14.9723 27.5505 12.2144 25.5162 10.1804C23.4819 8.14645 20.7237 7.00265 17.847 7V7ZM17.847 27.114C16.0146 27.114 14.2234 26.5706 12.6998 25.5526C11.1762 24.5346 9.98863 23.0877 9.28736 21.3948C8.58608 19.7019 8.40255 17.8391 8.75996 16.0419C9.11737 14.2446 9.99967 12.5938 11.2953 11.298C12.5909 10.0022 14.2417 9.11975 16.0389 8.76215C17.836 8.40454 19.6989 8.58788 21.3919 9.28897C23.0848 9.99006 24.5319 11.1774 25.5501 12.7009C26.5683 14.2244 27.1118 16.0156 27.112 17.848C27.1094 20.3045 26.1324 22.6597 24.3955 24.3968C22.6586 26.1339 20.3035 27.1111 17.847 27.114Z" fill="#0050A0"/>
<path d="M21.5414 17.8477H18.1094V13.0967C18.1094 12.8866 18.0259 12.6852 17.8774 12.5367C17.7289 12.3881 17.5274 12.3047 17.3174 12.3047C17.1073 12.3047 16.9059 12.3881 16.7574 12.5367C16.6088 12.6852 16.5254 12.8866 16.5254 13.0967V18.6397C16.5254 18.8497 16.6088 19.0512 16.7574 19.1997C16.9059 19.3482 17.1073 19.4317 17.3174 19.4317H21.5404C21.7504 19.4317 21.9519 19.3482 22.1004 19.1997C22.2489 19.0512 22.3324 18.8497 22.3324 18.6397C22.3324 18.4296 22.2489 18.2282 22.1004 18.0797C21.9519 17.9311 21.7504 17.8477 21.5404 17.8477H21.5414Z" fill="#0050A0"/>
</svg>
