<svg width="36" height="36" viewBox="0 0 36 36" fill="none" xmlns="http://www.w3.org/2000/svg">
<circle cx="18" cy="18" r="18" fill="#0050A0" fill-opacity="0.05"/>
<path d="M24.5484 10.4885H22.8428V9.59364C22.8428 9.4362 22.7802 9.2852 22.6689 9.17387C22.5576 9.06254 22.4066 9 22.2491 9C22.0917 9 21.9407 9.06254 21.8294 9.17387C21.718 9.2852 21.6555 9.4362 21.6555 9.59364V10.4885H13.341V9.59364C13.341 9.4362 13.2785 9.2852 13.1671 9.17387C13.0558 9.06254 12.9048 9 12.7474 9C12.5899 9 12.4389 9.06254 12.3276 9.17387C12.2163 9.2852 12.1537 9.4362 12.1537 9.59364V10.4885H10.4516C9.80262 10.4885 9.1801 10.7458 8.72053 11.2041C8.26097 11.6623 8.00185 12.2841 8 12.9331V25.5484C8 26.1986 8.25829 26.8222 8.71806 27.2819C9.17783 27.7417 9.8014 28 10.4516 28H24.5484C25.1986 28 25.8222 27.7417 26.2819 27.2819C26.7417 26.8222 27 26.1986 27 25.5484V12.9331C26.9981 12.2841 26.739 11.6623 26.2795 11.2041C25.8199 10.7458 25.1974 10.4885 24.5484 10.4885ZM10.4516 11.6714H12.1555V12.265C12.1555 12.4225 12.218 12.5735 12.3294 12.6848C12.4407 12.7961 12.5917 12.8587 12.7491 12.8587C12.9066 12.8587 13.0576 12.7961 13.1689 12.6848C13.2802 12.5735 13.3428 12.4225 13.3428 12.265V11.6714H21.659V12.265C21.659 12.4225 21.7215 12.5735 21.8329 12.6848C21.9442 12.7961 22.0952 12.8587 22.2526 12.8587C22.4101 12.8587 22.5611 12.7961 22.6724 12.6848C22.7837 12.5735 22.8463 12.4225 22.8463 12.265V11.6714H24.5484C24.8829 11.6718 25.2035 11.8049 25.44 12.0414C25.6765 12.278 25.8096 12.5986 25.8101 12.9331V14.341H9.18728V12.9331C9.18775 12.5982 9.32118 12.2771 9.55827 12.0405C9.79535 11.8039 10.1167 11.6712 10.4516 11.6714ZM24.5484 26.811H10.4516C10.2857 26.8111 10.1214 26.7785 9.96804 26.7151C9.81471 26.6517 9.67536 26.5588 9.55796 26.4415C9.44055 26.3243 9.34739 26.1851 9.28379 26.0318C9.22019 25.8786 9.1874 25.7143 9.18728 25.5484V15.5309H25.811V25.5484C25.8107 25.8832 25.6776 26.2042 25.4409 26.4409C25.2042 26.6776 24.8832 26.8107 24.5484 26.811Z" fill="#0050A0"/>
</svg>
