<svg width="83" height="83" viewBox="0 0 83 83" fill="none" xmlns="http://www.w3.org/2000/svg">
<path d="M80.894 33.7334H67.68V30.3224C67.68 29.8952 67.5103 29.4854 67.2082 29.1833C66.906 28.8812 66.4963 28.7114 66.069 28.7114H11.246C10.8186 28.7114 10.4087 28.8812 10.1065 29.1834C9.80429 29.4856 9.63451 29.8955 9.63451 30.3229C9.63451 30.7503 9.80429 31.1602 10.1065 31.4624C10.4087 31.7646 10.8186 31.9344 11.246 31.9344H64.457V44.2884C64.4496 49.631 63.0481 54.8791 60.3911 59.5141C57.7341 64.149 53.9135 68.0104 49.307 70.7164H18.373C13.7665 68.0104 9.94592 64.149 7.2889 59.5141C4.63188 54.8791 3.23041 49.631 3.22301 44.2884V31.9344H14.023C14.4504 31.9344 14.8603 31.7646 15.1625 31.4624C15.4647 31.1602 15.6345 30.7503 15.6345 30.3229C15.6345 29.8955 15.4647 29.4856 15.1625 29.1834C14.8603 28.8812 14.4504 28.7114 14.023 28.7114H1.61101C1.18365 28.7117 0.773891 28.8816 0.471799 29.1839C0.169707 29.4862 8.57853e-06 29.8961 8.66076e-06 30.3234V44.2884C-0.00362631 49.3653 1.13699 54.3777 3.33709 58.9531C5.53719 63.5285 8.74018 67.5492 12.708 70.7164H1.61101C1.18383 70.7167 0.774216 70.8865 0.472152 71.1886C0.170089 71.4906 0.00027358 71.9003 8.66076e-06 72.3274C0.00318479 75.147 1.12467 77.8502 3.11844 79.844C5.1122 81.8378 7.81541 82.9593 10.635 82.9624H60.912C63.7316 82.9593 66.4348 81.8378 68.4286 79.844C70.4223 77.8502 71.5438 75.147 71.547 72.3274C71.5467 71.9003 71.3769 71.4906 71.0749 71.1886C70.7728 70.8865 70.3632 70.7167 69.936 70.7164H54.972C57.9009 68.3713 60.4219 65.558 62.433 62.3904H66.982C71.0975 62.3857 75.0431 60.7487 77.9532 57.8386C80.8633 54.9285 82.5002 50.9829 82.505 46.8674V35.3454C82.5051 35.1338 82.4636 34.9242 82.3827 34.7286C82.3018 34.5331 82.1831 34.3553 82.0335 34.2056C81.8839 34.0559 81.7063 33.9372 81.5107 33.8562C81.3152 33.7751 81.1057 33.7334 80.894 33.7334ZM68.148 73.9394C67.779 75.5838 66.8616 77.0538 65.5467 78.1078C64.2317 79.1618 62.5973 79.7372 60.912 79.7394H10.635C8.94974 79.7372 7.31534 79.1618 6.00036 78.1078C4.68537 77.0538 3.76802 75.5838 3.39901 73.9394H68.148ZM67.68 44.2894V43.4034H72.837V46.8684C72.8354 48.4208 72.218 49.9091 71.1204 51.0068C70.0227 52.1045 68.5344 52.7218 66.982 52.7234H66.616C67.323 49.9675 67.6805 47.1336 67.68 44.2884V44.2894ZM79.28 46.8674C79.276 50.1284 77.9789 53.2546 75.673 55.5605C73.3672 57.8663 70.241 59.1635 66.98 59.1674H64.239C64.7533 58.1177 65.2126 57.0419 65.615 55.9444H66.982C69.3888 55.9418 71.6963 54.9845 73.3982 53.2826C75.1001 51.5807 76.0574 49.2733 76.06 46.8664V41.7904C76.0597 41.3633 75.8899 40.9536 75.5879 40.6516C75.2858 40.3495 74.8762 40.1797 74.449 40.1794H67.68V36.9564H79.28V46.8674Z" fill="#0050A0"/>
<path d="M35.379 9.37545L34.541 8.32245C33.9441 7.57737 33.6188 6.65115 33.6188 5.69645C33.6188 4.74175 33.9441 3.81553 34.541 3.07045C34.7901 2.73442 34.8988 2.31467 34.844 1.89997C34.7892 1.48527 34.5752 1.10814 34.2474 0.848353C33.9195 0.588564 33.5035 0.466484 33.0872 0.507933C32.671 0.549382 32.2872 0.751111 32.017 1.07045C30.9653 2.38566 30.3931 4.01989 30.3945 5.70386C30.396 7.38783 30.9711 9.02106 32.025 10.3345L32.863 11.3875C33.644 12.3605 34.0702 13.5707 34.0712 14.8184C34.0723 16.0661 33.6483 17.277 32.869 18.2515L32.01 19.3345C31.8705 19.4993 31.7656 19.6905 31.7015 19.8966C31.6374 20.1028 31.6154 20.3198 31.6368 20.5346C31.6582 20.7495 31.7225 20.9578 31.8261 21.1473C31.9296 21.3368 32.0701 21.5036 32.2393 21.6377C32.4086 21.7717 32.603 21.8705 32.8111 21.9279C33.0193 21.9854 33.2368 22.0004 33.4509 21.9721C33.6649 21.9438 33.8711 21.8728 34.0572 21.7633C34.2433 21.6537 34.4054 21.5079 34.534 21.3345L35.393 20.2515C36.6267 18.7067 37.2975 16.7879 37.295 14.811C37.2924 12.8341 36.6167 10.917 35.379 9.37545Z" fill="#0050A0"/>
<path d="M44.3067 12.9965L43.4687 11.9435C42.8718 11.1985 42.5465 10.2722 42.5465 9.31755C42.5465 8.36284 42.8718 7.43663 43.4687 6.69155C43.7178 6.35552 43.8265 5.93576 43.7717 5.52106C43.7169 5.10636 43.503 4.72924 43.1751 4.46945C42.8472 4.20966 42.4312 4.08758 42.015 4.12903C41.5987 4.17048 41.2149 4.3722 40.9447 4.69155C39.8931 6.00675 39.3208 7.64098 39.3223 9.32495C39.3237 11.0089 39.8988 12.6422 40.9527 13.9555L41.7907 15.0085C42.5715 15.9817 42.9976 17.1918 42.9987 18.4395C42.9998 19.6872 42.5758 20.898 41.7967 21.8725L40.9377 22.9545C40.7983 23.1194 40.6934 23.3106 40.6292 23.5167C40.5651 23.7229 40.5431 23.9399 40.5645 24.1547C40.5859 24.3696 40.6503 24.5779 40.7538 24.7674C40.8573 24.9569 40.9978 25.1237 41.1671 25.2577C41.3363 25.3918 41.5307 25.4906 41.7389 25.548C41.947 25.6055 42.1646 25.6205 42.3786 25.5922C42.5927 25.5639 42.7989 25.4929 42.9849 25.3834C43.171 25.2738 43.3331 25.128 43.4617 24.9545L44.3207 23.8725C45.5544 22.3278 46.2252 20.409 46.2227 18.4321C46.2201 16.4552 45.5444 14.5381 44.3067 12.9965Z" fill="#0050A0"/>
<path d="M26.4473 12.9956L25.6093 11.9426C25.0124 11.1975 24.6872 10.2713 24.6872 9.31661C24.6872 8.36191 25.0124 7.4357 25.6093 6.69061C25.7488 6.52578 25.8537 6.33459 25.9178 6.12842C25.9819 5.92224 26.0039 5.70528 25.9825 5.49043C25.9612 5.27558 25.8968 5.06722 25.7933 4.87773C25.6898 4.68825 25.5492 4.5215 25.38 4.38741C25.2108 4.25332 25.0163 4.15461 24.8082 4.09715C24.6001 4.03969 24.3825 4.02466 24.1684 4.05294C23.9544 4.08123 23.7482 4.15225 23.5622 4.2618C23.3761 4.37134 23.2139 4.51717 23.0853 4.69061C22.0337 6.00582 21.4614 7.64005 21.4629 9.32402C21.4643 11.008 22.0394 12.6412 23.0934 13.9546L23.9314 15.0076C24.7122 15.9808 25.1382 17.1909 25.1393 18.4386C25.1404 19.6862 24.7165 20.8971 23.9374 21.8716L23.0783 22.9536C22.9389 23.1184 22.834 23.3096 22.7699 23.5158C22.7058 23.722 22.6837 23.9389 22.7051 24.1538C22.7265 24.3687 22.7909 24.577 22.8944 24.7665C22.9979 24.956 23.1385 25.1227 23.3077 25.2568C23.4769 25.3909 23.6714 25.4896 23.8795 25.5471C24.0876 25.6045 24.3052 25.6196 24.5192 25.5913C24.7333 25.563 24.9395 25.492 25.1256 25.3824C25.3116 25.2729 25.4738 25.1271 25.6023 24.9536L26.4614 23.8706C27.6948 22.326 28.3655 20.4073 28.3629 18.4307C28.3604 16.454 27.6848 14.5371 26.4473 12.9956Z" fill="#0050A0"/>
<path d="M58.3327 42.6772C57.9054 42.6772 57.4956 42.847 57.1935 43.1491C56.8914 43.4512 56.7217 43.861 56.7217 44.2882C56.6976 50.328 54.3078 56.1179 50.0647 60.4163C49.9157 60.5666 49.7978 60.7447 49.7176 60.9406C49.6375 61.1365 49.5967 61.3462 49.5977 61.5578C49.5986 61.7695 49.6412 61.9788 49.723 62.174C49.8049 62.3691 49.9244 62.5463 50.0747 62.6953C50.225 62.8442 50.4031 62.9621 50.599 63.0423C50.7949 63.1224 51.0046 63.1632 51.2162 63.1622C51.4279 63.1613 51.6372 63.1187 51.8324 63.0369C52.0275 62.955 52.2047 62.8355 52.3537 62.6852C57.1934 57.781 59.9182 51.1753 59.9437 44.2852C59.9426 43.8586 59.7725 43.4497 59.4705 43.1483C59.1685 42.8469 58.7593 42.6775 58.3327 42.6772Z" fill="#0050A0"/>
<path d="M47.3615 64.7903C47.2576 64.6053 47.1181 64.4427 46.9512 64.3117C46.7842 64.1807 46.5931 64.0841 46.3886 64.0272C46.1842 63.9703 45.9706 63.9544 45.76 63.9803C45.5494 64.0063 45.346 64.0735 45.1615 64.1783L45.1245 64.1993C44.9402 64.3032 44.7781 64.4425 44.6476 64.609C44.5171 64.7756 44.4207 64.9662 44.3639 65.1701C44.3071 65.3739 44.2909 65.5869 44.3164 65.797C44.3419 66.007 44.4085 66.21 44.5125 66.3943C44.6164 66.5786 44.7556 66.7406 44.9222 66.8712C45.0888 67.0017 45.2794 67.0981 45.4832 67.1549C45.6871 67.2117 45.9001 67.2279 46.1101 67.2024C46.3202 67.1769 46.5232 67.1103 46.7075 67.0063L46.7445 66.9853C46.9292 66.8818 47.0918 66.7429 47.2228 66.5766C47.3538 66.4102 47.4508 66.2196 47.5081 66.0157C47.5654 65.8119 47.5819 65.5987 47.5568 65.3884C47.5316 65.1782 47.4653 64.9749 47.3615 64.7903Z" fill="#0050A0"/>
</svg>
