<svg width="22" height="26" viewBox="0 0 22 26" fill="none" xmlns="http://www.w3.org/2000/svg">
<path d="M15.0935 0.19697C15.0341 0.135397 14.9627 0.0862136 14.8835 0.0523673C14.8043 0.018521 14.7189 0.000709225 14.6325 0L4.29119 0C3.36981 0.00387522 2.4872 0.364152 1.83511 1.00256C1.18303 1.64097 0.814141 2.50593 0.808594 3.40955V22.5865C0.813086 23.4908 1.18151 24.3568 1.83371 24.996C2.4859 25.6353 3.36911 25.9961 4.29119 26H18.326C19.2474 25.9961 20.13 25.6358 20.7821 24.9974C21.4342 24.359 21.803 23.4941 21.8086 22.5905V7.35879C21.803 7.19513 21.737 7.03904 21.6228 6.91955L15.0935 0.19697ZM15.2792 2.21295L19.6526 6.7147H16.8086C16.608 6.71548 16.4091 6.67738 16.2234 6.6026C16.0378 6.52782 15.869 6.41782 15.7268 6.27892C15.5846 6.14002 15.4718 5.97495 15.3948 5.79318C15.3179 5.61141 15.2782 5.41652 15.2782 5.2197L15.2792 2.21295ZM18.327 24.7364H4.29119C3.70937 24.7326 3.15242 24.5046 2.74044 24.1017C2.32846 23.6988 2.09448 23.1532 2.08896 22.5826V3.40955C2.09448 2.83896 2.32846 2.29337 2.74044 1.89044C3.15242 1.48751 3.70937 1.25953 4.29119 1.25568H13.9979V5.2197C13.9973 5.58165 14.0697 5.94014 14.211 6.27455C14.3522 6.60896 14.5594 6.91271 14.8207 7.16833C15.082 7.42395 15.3922 7.6264 15.7335 7.76404C16.0749 7.90168 16.4406 7.97181 16.8096 7.97038H20.5252V22.5865C20.5218 23.1572 20.2889 23.7036 19.8771 24.1068C19.4653 24.5101 18.9079 24.7378 18.326 24.7404L18.327 24.7364Z" fill="#0050A0"/>
</svg>
