<svg width="36" height="36" viewBox="0 0 36 36" fill="none" xmlns="http://www.w3.org/2000/svg">
<circle cx="18" cy="18" r="18" fill="#0050A0" fill-opacity="0.05"/>
<path d="M19.2637 16.8958C19.1762 16.8857 19.0882 16.91 19.0182 16.9636C18.9483 17.0171 18.9018 17.0957 18.8887 17.1828V22.6118C18.911 22.694 18.9597 22.7667 19.0274 22.8185C19.0951 22.8703 19.178 22.8983 19.2632 22.8983C19.3484 22.8983 19.4313 22.8703 19.4989 22.8185C19.5666 22.7667 19.6154 22.694 19.6377 22.6118V17.1858C19.6252 17.0983 19.5792 17.0192 19.5094 16.965C19.4396 16.9109 19.3515 16.8861 19.2637 16.8958Z" fill="#0050A0" stroke="#0050A0" stroke-width="0.3"/>
<path d="M16.7285 16.8958C16.641 16.8857 16.553 16.91 16.4831 16.9636C16.4131 17.0171 16.3667 17.0957 16.3535 17.1828V22.6118C16.3758 22.694 16.4246 22.7667 16.4922 22.8185C16.5599 22.8703 16.6428 22.8983 16.728 22.8983C16.8132 22.8983 16.8961 22.8703 16.9638 22.8185C17.0315 22.7667 17.0802 22.694 17.1025 22.6118V17.1858C17.0901 17.0983 17.0441 17.0192 16.9743 16.965C16.9044 16.9109 16.8163 16.8861 16.7285 16.8958Z" fill="#0050A0" stroke="#0050A0" stroke-width="0.3"/>
<path d="M12.1421 14.7622V23.9942C12.1407 24.2593 12.1924 24.5221 12.294 24.767C12.3957 25.0119 12.5453 25.234 12.7341 25.4202C13.1211 25.7943 13.6389 26.0025 14.1771 26.0002H21.8151C22.3529 26.0025 22.8703 25.7947 23.2571 25.4212C23.4459 25.235 23.5956 25.0129 23.6972 24.768C23.7989 24.5231 23.8505 24.2603 23.8491 23.9952V14.7622C24.1994 14.6885 24.5096 14.4869 24.7191 14.1968C24.9286 13.9066 25.0224 13.5488 24.9821 13.1932C24.9194 12.8365 24.7303 12.5143 24.4496 12.2855C24.1688 12.0568 23.8151 11.9366 23.4531 11.9472H21.3871V11.4792C21.387 11.2812 21.3455 11.0854 21.2653 10.9044C21.185 10.7234 21.0678 10.5612 20.9211 10.4282C20.6113 10.1471 20.2064 9.99416 19.7881 10.0002H16.1991C15.7806 9.99471 15.3756 10.1484 15.0661 10.4302C14.9196 10.5631 14.8025 10.7251 14.7222 10.9059C14.642 11.0868 14.6004 11.2823 14.6001 11.4802V11.9482H12.5381C12.1763 11.9376 11.8227 12.0576 11.542 12.2862C11.2612 12.5147 11.0721 12.8367 11.0091 13.1932C10.9689 13.5488 11.0627 13.9066 11.2722 14.1968C11.4817 14.4869 11.7919 14.6885 12.1421 14.7622ZM21.8141 25.2492H14.1771C14.0136 25.2493 13.8516 25.2168 13.7009 25.1534C13.5501 25.0901 13.4135 24.9972 13.2992 24.8802C13.1848 24.7633 13.095 24.6247 13.0351 24.4725C12.9751 24.3203 12.9463 24.1577 12.9501 23.9942V14.7942H23.0421V23.9942C23.046 24.1577 23.0171 24.3203 22.9572 24.4725C22.8972 24.6247 22.8075 24.7633 22.6931 24.8802C22.5788 24.9972 22.4422 25.0901 22.2914 25.1534C22.1406 25.2168 21.9787 25.2493 21.8151 25.2492H21.8141ZM15.4141 11.4792C15.4134 11.3813 15.4333 11.2843 15.4724 11.1946C15.5115 11.1049 15.569 11.0243 15.6411 10.9582C15.7937 10.8198 15.9932 10.7447 16.1991 10.7482H19.7881C19.9954 10.7437 20.1966 10.8188 20.3501 10.9582C20.4227 11.0241 20.4805 11.1046 20.52 11.1943C20.5594 11.2841 20.5796 11.3811 20.5791 11.4792V11.9472H15.4121L15.4141 11.4792ZM12.5381 12.7002H23.4541C23.5462 12.6966 23.638 12.7111 23.7244 12.7431C23.8107 12.775 23.89 12.8237 23.9575 12.8863C24.025 12.9489 24.0796 13.0242 24.1179 13.108C24.1563 13.1917 24.1778 13.2821 24.1811 13.3742C24.1778 13.4662 24.1563 13.5567 24.1179 13.6404C24.0796 13.7241 24.025 13.7994 23.9575 13.862C23.89 13.9247 23.8107 13.9733 23.7244 14.0053C23.638 14.0372 23.5462 14.0518 23.4541 14.0482H12.5381C12.4461 14.0518 12.3543 14.0372 12.2679 14.0053C12.1815 13.9733 12.1023 13.9247 12.0348 13.862C11.9672 13.7994 11.9127 13.7241 11.8743 13.6404C11.836 13.5567 11.8145 13.4662 11.8111 13.3742C11.8145 13.2821 11.836 13.1917 11.8743 13.108C11.9127 13.0242 11.9672 12.9489 12.0348 12.8863C12.1023 12.8237 12.1815 12.775 12.2679 12.7431C12.3543 12.7111 12.4461 12.6966 12.5381 12.7002Z" fill="#0050A0" stroke="#0050A0" stroke-width="0.3"/>
</svg>
