<svg width="21" height="26" viewBox="0 0 21 26" fill="none" xmlns="http://www.w3.org/2000/svg">
<path d="M14.2849 0.19697C14.2255 0.135397 14.1541 0.0862136 14.0749 0.0523673C13.9957 0.018521 13.9103 0.000709225 13.8239 0L3.48259 0C2.56121 0.00387522 1.6786 0.364152 1.02652 1.00256C0.374433 1.64097 0.00554685 2.50593 0 3.40955V22.5865C0.00449204 23.4908 0.372913 24.3568 1.02511 24.996C1.67731 25.6353 2.56052 25.9961 3.48259 26H17.5174C18.4388 25.9961 19.3214 25.6358 19.9735 24.9974C20.6256 24.359 20.9945 23.4941 21 22.5905V7.35879C20.9944 7.19513 20.9284 7.03904 20.8142 6.91955L14.2849 0.19697ZM14.4706 2.21295L18.844 6.7147H16C15.7994 6.71548 15.6005 6.67738 15.4148 6.6026C15.2292 6.52782 15.0604 6.41782 14.9182 6.27892C14.7761 6.14002 14.6632 5.97495 14.5862 5.79318C14.5093 5.61141 14.4696 5.41652 14.4696 5.2197L14.4706 2.21295ZM17.5184 24.7364H3.48259C2.90078 24.7326 2.34382 24.5046 1.93184 24.1017C1.51987 23.6988 1.28589 23.1532 1.28037 22.5826V3.40955C1.28589 2.83896 1.51987 2.29337 1.93184 1.89044C2.34382 1.48751 2.90078 1.25953 3.48259 1.25568H13.1893V5.2197C13.1887 5.58165 13.2612 5.94014 13.4024 6.27455C13.5436 6.60896 13.7508 6.91271 14.0121 7.16833C14.2734 7.42395 14.5836 7.6264 14.9249 7.76404C15.2663 7.90168 15.632 7.97181 16.0011 7.97038H19.7166V22.5865C19.7132 23.1572 19.4803 23.7036 19.0685 24.1068C18.6567 24.5101 18.0993 24.7378 17.5174 24.7404L17.5184 24.7364Z" fill="#0050A0"/>
<path d="M9.9424 20.3656C10.0019 20.429 10.0742 20.4795 10.1547 20.5141C10.2351 20.5487 10.322 20.5666 10.4099 20.5666C10.4977 20.5666 10.5846 20.5487 10.6651 20.5141C10.7455 20.4795 10.8178 20.429 10.8773 20.3656L14.629 16.4154C14.6862 16.3552 14.7307 16.2845 14.7601 16.2074C14.7894 16.1304 14.8029 16.0484 14.7999 15.9662C14.797 15.8839 14.7775 15.8031 14.7427 15.7283C14.7078 15.6534 14.6583 15.5861 14.5969 15.53C14.5355 15.4739 14.4635 15.4303 14.3849 15.4015C14.3063 15.3728 14.2227 15.3595 14.1389 15.3624C14.055 15.3653 13.9726 15.3844 13.8963 15.4186C13.82 15.4527 13.7513 15.5013 13.6941 15.5615L11.05 18.3437V11.4862C11.0535 11.4017 11.0394 11.3173 11.0088 11.2382C10.9782 11.1591 10.9316 11.0869 10.8718 11.0259C10.812 10.9649 10.7403 10.9164 10.6609 10.8832C10.5815 10.8501 10.4961 10.833 10.4099 10.833C10.3236 10.833 10.2382 10.8501 10.1588 10.8832C10.0795 10.9164 10.0077 10.9649 9.94795 11.0259C9.88816 11.0869 9.84156 11.1591 9.81093 11.2382C9.7803 11.3173 9.76626 11.4017 9.76968 11.4862V18.3467L7.13162 15.5645C7.01616 15.4429 6.85619 15.3713 6.68688 15.3653C6.51758 15.3594 6.35282 15.4197 6.22884 15.5329C6.10486 15.6462 6.03182 15.8031 6.0258 15.9691C6.01977 16.1351 6.08125 16.2967 6.1967 16.4183L9.9424 20.3656Z" fill="#0050A0"/>
</svg>
