<svg width="22" height="22" viewBox="0 0 22 22" fill="none" xmlns="http://www.w3.org/2000/svg">
<g clip-path="url(#clip0_1_2)">
<path d="M4.63158 0.5H17.3684C19.6502 0.5 21.5 2.34977 21.5 4.63158V17.3684C21.5 19.6502 19.6502 21.5 17.3684 21.5H4.63158C2.34977 21.5 0.5 19.6502 0.5 17.3684V4.63158C0.5 2.34977 2.34977 0.5 4.63158 0.5Z" stroke="#757575"/>
<path d="M17.3684 0.578947H4.63158C2.39337 0.578947 0.578947 2.39337 0.578947 4.63158V17.3684C0.578947 19.6066 2.39337 21.4211 4.63158 21.4211H17.3684C19.6066 21.4211 21.4211 19.6066 21.4211 17.3684V4.63158C21.4211 2.39337 19.6066 0.578947 17.3684 0.578947Z" stroke="#757575"/>
<path d="M15.0526 3.47368H6.94737C5.02891 3.47368 3.47368 5.02891 3.47368 6.94737V15.0526C3.47368 16.9711 5.02891 18.5263 6.94737 18.5263H15.0526C16.9711 18.5263 18.5263 16.9711 18.5263 15.0526V6.94737C18.5263 5.02891 16.9711 3.47368 15.0526 3.47368Z" fill="#757575"/>
</g>
<defs>
<clipPath id="clip0_1_2">
<rect width="22" height="22" fill="white"/>
</clipPath>
</defs>
</svg>
