<svg width="20" height="20" viewBox="0 0 20 20" fill="none" xmlns="http://www.w3.org/2000/svg">
<path d="M8.41258 15.1789L6.02158 17.5699C5.54539 18.0456 4.89974 18.3126 4.22667 18.3122C3.5536 18.3119 2.90825 18.0441 2.43258 17.5679C1.95692 17.0917 1.6899 16.4461 1.69028 15.773C1.69065 15.0999 1.95839 14.4546 2.43458 13.9789L7.21758 9.19594C7.45308 8.96037 7.73269 8.77349 8.04042 8.646C8.34815 8.5185 8.67799 8.45288 9.01108 8.45288C9.34418 8.45288 9.67402 8.5185 9.98175 8.646C10.2895 8.77349 10.5691 8.96037 10.8046 9.19594C10.9637 9.35507 11.1795 9.44446 11.4046 9.44446C11.6296 9.44446 11.8455 9.35507 12.0046 9.19594C12.1637 9.03681 12.2531 8.82098 12.2531 8.59593C12.2531 8.37089 12.1637 8.15506 12.0046 7.99593C11.6121 7.60339 11.1461 7.29203 10.6332 7.07959C10.1204 6.86715 9.5707 6.75781 9.01558 6.75781C8.46047 6.75781 7.9108 6.86715 7.39794 7.07959C6.88509 7.29203 6.4191 7.60339 6.02658 7.99593L1.23858 12.7869C0.467086 13.5841 0.039834 14.6527 0.0489717 15.762C0.0581095 16.8714 0.502905 17.9327 1.28743 18.7171C2.07196 19.5015 3.13335 19.9461 4.24271 19.955C5.35207 19.964 6.4205 19.5366 7.21758 18.7649L9.60858 16.3789C9.68738 16.3001 9.74988 16.2066 9.79252 16.1037C9.83517 16.0007 9.85711 15.8904 9.85711 15.7789C9.85711 15.6675 9.83517 15.5572 9.79252 15.4542C9.74988 15.3513 9.68738 15.2577 9.60858 15.1789C9.52979 15.1001 9.43625 15.0376 9.3333 14.995C9.23035 14.9524 9.12002 14.9304 9.00858 14.9304C8.89715 14.9304 8.78681 14.9524 8.68387 14.995C8.58092 15.0376 8.48738 15.1001 8.40858 15.1789H8.41258Z" fill="#0050A0"/>
<path d="M18.7629 1.23821C17.97 0.445391 16.8947 0 15.7734 0C14.6522 0 13.5768 0.445391 12.7839 1.23821L9.91492 4.10721C9.83612 4.186 9.77363 4.27954 9.73099 4.38249C9.68834 4.48544 9.6664 4.59577 9.6664 4.7072C9.6664 4.81863 9.68834 4.92897 9.73099 5.03192C9.77363 5.13487 9.83612 5.22841 9.91492 5.30721C9.99371 5.386 10.0873 5.4485 10.1902 5.49114C10.2931 5.53379 10.4035 5.55573 10.5149 5.55573C10.6264 5.55573 10.7367 5.53379 10.8396 5.49114C10.9426 5.4485 11.0361 5.386 11.1149 5.30721L13.9839 2.43821C14.4619 1.97348 15.1035 1.71555 15.7701 1.72017C16.4367 1.7248 17.0748 1.99162 17.5462 2.46293C18.0176 2.93425 18.2846 3.57218 18.2895 4.2388C18.2943 4.90541 18.0365 5.54713 17.5719 6.02521L12.3109 11.2862C12.0754 11.5218 11.7958 11.7086 11.4881 11.8361C11.1804 11.9636 10.8505 12.0293 10.5174 12.0293C10.1843 12.0293 9.85449 11.9636 9.54675 11.8361C9.23902 11.7086 8.95942 11.5218 8.72392 11.2862C8.64513 11.2074 8.55159 11.1449 8.44864 11.1023C8.34569 11.0596 8.23535 11.0377 8.12392 11.0377C8.01249 11.0377 7.90216 11.0596 7.79921 11.1023C7.69626 11.1449 7.60272 11.2074 7.52393 11.2862C7.44513 11.365 7.38262 11.4585 7.33998 11.5615C7.29734 11.6644 7.27539 11.7748 7.27539 11.8862C7.27539 11.9976 7.29734 12.108 7.33998 12.2109C7.38262 12.3139 7.44513 12.4074 7.52393 12.4862C7.91644 12.8787 8.38242 13.1901 8.89528 13.4025C9.40813 13.615 9.95781 13.7243 10.5129 13.7243C11.068 13.7243 11.6177 13.615 12.1306 13.4025C12.6434 13.1901 13.1094 12.8787 13.5019 12.4862L18.7629 7.2252C19.1568 6.83252 19.4693 6.36597 19.6826 5.85229C19.8958 5.3386 20.0055 4.78789 20.0055 4.2317C20.0055 3.67552 19.8958 3.12481 19.6826 2.61112C19.4693 2.09744 19.1568 1.63089 18.7629 1.23821Z" fill="#0050A0"/>
</svg>
