<svg width="36" height="36" viewBox="0 0 36 36" fill="none" xmlns="http://www.w3.org/2000/svg">
<circle cx="18" cy="18" r="18" fill="#0050A0" fill-opacity="0.05"/>
<path d="M24.7246 11.6743C24.511 11.4605 24.2574 11.291 23.9782 11.1753C23.699 11.0596 23.3998 11 23.0976 11C22.7954 11 22.4962 11.0596 22.217 11.1753C21.9378 11.291 21.6842 11.4605 21.4706 11.6743L12.3496 20.7943C12.2872 20.8567 12.2421 20.9343 12.2186 21.0193L11.0186 25.3493C10.9944 25.4365 10.9938 25.5285 11.0168 25.616C11.0399 25.7035 11.0857 25.7833 11.1497 25.8472C11.2136 25.9112 11.2934 25.957 11.3809 25.9801C11.4684 26.0031 11.5604 26.0025 11.6476 25.9783L15.9776 24.7783C16.0626 24.7548 16.1402 24.7097 16.2026 24.6473L25.3236 15.5273C25.5372 15.3137 25.7067 15.0602 25.8223 14.7811C25.9379 14.502 25.9974 14.2029 25.9974 13.9008C25.9974 13.5987 25.9379 13.2996 25.8223 13.0205C25.7067 12.7415 25.5372 12.4879 25.3236 12.2743L24.7246 11.6743ZM13.4636 21.1263L20.9286 13.6623L23.3356 16.0693L15.8706 23.5333L13.4636 21.1263ZM12.9826 22.0913L14.9056 24.0143L12.2456 24.7513L12.9826 22.0913ZM24.6006 14.8043L24.0586 15.3463L21.6516 12.9393L22.1936 12.3973C22.4333 12.1577 22.7582 12.0232 23.0971 12.0232C23.436 12.0232 23.7609 12.1577 24.0006 12.3973L24.6006 12.9973C24.8398 13.2371 24.9742 13.5619 24.9744 13.9006C24.9746 14.2393 24.8395 14.5643 24.6006 14.8043Z" fill="#0050A0" stroke="#0050A0" stroke-width="0.3"/>
</svg>
