<svg width="67" height="79" viewBox="0 0 67 79" fill="none" xmlns="http://www.w3.org/2000/svg">
<path d="M62.487 10.415H55.86V3.787C55.8566 2.78368 55.4565 1.82243 54.747 1.11297C54.0376 0.403513 53.0763 0.00342658 52.073 0H3.784C2.7812 0.00421651 1.82072 0.404652 1.11191 1.11403C0.403096 1.8234 0.0034218 2.7842 0 3.787V64.387C0.00342658 65.3903 0.403513 66.3516 1.11297 67.061C1.82243 67.7705 2.78368 68.1706 3.787 68.174H10.415V74.8C10.4184 75.803 10.8182 76.7639 11.5273 77.4733C12.2363 78.1827 13.197 78.583 14.2 78.587H46.391C48.7975 78.4571 51.0955 77.544 52.935 75.987L63.515 66.028C65.1641 64.296 66.1419 62.0329 66.273 59.645V14.197C66.2683 13.1947 65.8677 12.2349 65.1586 11.5265C64.4495 10.8182 63.4893 10.4187 62.487 10.415ZM10.412 14.2V65.331H3.784C3.53381 65.3279 3.29474 65.2271 3.11781 65.0502C2.94089 64.8733 2.84011 64.6342 2.837 64.384V3.787C2.84011 3.53681 2.94089 3.29774 3.11781 3.12081C3.29474 2.94388 3.53381 2.84311 3.784 2.84H52.073C52.3231 2.84336 52.562 2.94422 52.7389 3.12109C52.9158 3.29796 53.0166 3.53689 53.02 3.787V10.415H14.2C13.1969 10.4182 12.2356 10.8179 11.526 11.5269C10.8164 12.236 10.416 13.1969 10.412 14.2ZM61.568 63.962L50.988 73.92C50.7382 74.1446 50.4665 74.3436 50.177 74.514V65.8C50.1788 65.1728 50.4288 64.5718 50.8723 64.1283C51.3158 63.6848 51.9168 63.4348 52.544 63.433H62.017C61.8832 63.6231 61.7329 63.8011 61.568 63.965V63.962ZM63.432 59.647C63.4234 59.9664 63.3801 60.2839 63.303 60.594H52.545C51.1649 60.5966 49.8421 61.1459 48.866 62.1216C47.89 63.0973 47.3402 64.4199 47.337 65.8V75.627C47.0258 75.6957 46.7086 75.7342 46.39 75.742H14.2C13.9498 75.7389 13.7107 75.6381 13.5338 75.4612C13.3569 75.2843 13.2561 75.0452 13.253 74.795V14.2C13.2561 13.9498 13.3569 13.7107 13.5338 13.5338C13.7107 13.3569 13.9498 13.2561 14.2 13.253H62.488C62.7382 13.2561 62.9773 13.3569 63.1542 13.5338C63.3311 13.7107 63.4319 13.9498 63.435 14.2L63.432 59.647Z" fill="#323250"/>
<path d="M52.0728 23.6709H24.6148C24.2381 23.6709 23.8768 23.8205 23.6104 24.0869C23.344 24.3533 23.1943 24.7147 23.1943 25.0914C23.1943 25.4681 23.344 25.8294 23.6104 26.0958C23.8768 26.3622 24.2381 26.5119 24.6148 26.5119H52.0728C52.4496 26.5119 52.8109 26.3622 53.0773 26.0958C53.3437 25.8294 53.4933 25.4681 53.4933 25.0914C53.4933 24.7147 53.3437 24.3533 53.0773 24.0869C52.8109 23.8205 52.4496 23.6709 52.0728 23.6709Z" fill="#323250"/>
<path d="M52.0733 42.6074H24.6153C24.4288 42.6074 24.2442 42.6442 24.0719 42.7155C23.8996 42.7869 23.7431 42.8915 23.6112 43.0233C23.4794 43.1552 23.3748 43.3117 23.3034 43.484C23.232 43.6563 23.1953 43.841 23.1953 44.0274C23.1953 44.2139 23.232 44.3985 23.3034 44.5708C23.3748 44.7431 23.4794 44.8997 23.6112 45.0315C23.7431 45.1634 23.8996 45.268 24.0719 45.3393C24.2442 45.4107 24.4288 45.4474 24.6153 45.4474H52.0733C52.2598 45.4474 52.4444 45.4107 52.6167 45.3393C52.789 45.268 52.9455 45.1634 53.0774 45.0315C53.2093 44.8997 53.3139 44.7431 53.3852 44.5708C53.4566 44.3985 53.4933 44.2139 53.4933 44.0274C53.4933 43.841 53.4566 43.6563 53.3852 43.484C53.3139 43.3117 53.2093 43.1552 53.0774 43.0233C52.9455 42.8915 52.789 42.7869 52.6167 42.7155C52.4444 42.6442 52.2598 42.6074 52.0733 42.6074Z" fill="#323250"/>
<path d="M39.7643 52.0752H24.6153C24.4288 52.0752 24.2442 52.1119 24.0719 52.1833C23.8996 52.2547 23.7431 52.3592 23.6112 52.4911C23.4794 52.6229 23.3748 52.7795 23.3034 52.9518C23.232 53.1241 23.1953 53.3087 23.1953 53.4952C23.1953 53.6817 23.232 53.8663 23.3034 54.0386C23.3748 54.2109 23.4794 54.3674 23.6112 54.4993C23.7431 54.6311 23.8996 54.7357 24.0719 54.8071C24.2442 54.8785 24.4288 54.9152 24.6153 54.9152H39.7643C40.1409 54.9152 40.5021 54.7656 40.7684 54.4993C41.0347 54.233 41.1843 53.8718 41.1843 53.4952C41.1843 53.1186 41.0347 52.7574 40.7684 52.4911C40.5021 52.2248 40.1409 52.0752 39.7643 52.0752Z" fill="#323250"/>
<path d="M52.0728 33.1357H24.6148C24.4283 33.1357 24.2436 33.1725 24.0712 33.2439C23.8989 33.3153 23.7423 33.4199 23.6104 33.5518C23.4785 33.6837 23.3739 33.8403 23.3025 34.0126C23.2311 34.185 23.1943 34.3697 23.1943 34.5562C23.1943 34.7428 23.2311 34.9275 23.3025 35.0999C23.3739 35.2722 23.4785 35.4288 23.6104 35.5607C23.7423 35.6926 23.8989 35.7972 24.0712 35.8686C24.2436 35.94 24.4283 35.9767 24.6148 35.9767H52.0728C52.4496 35.9767 52.8109 35.8271 53.0773 35.5607C53.3437 35.2943 53.4933 34.933 53.4933 34.5562C53.4933 34.1795 53.3437 33.8182 53.0773 33.5518C52.8109 33.2854 52.4496 33.1357 52.0728 33.1357Z" fill="#323250"/>
</svg>
