<svg width="24" height="32" viewBox="0 0 24 32" fill="none" xmlns="http://www.w3.org/2000/svg">
<path d="M8.88081 23.9745C8.53318 23.9754 8.18882 23.9074 7.86767 23.7743C7.54652 23.6412 7.25497 23.4457 7.00988 23.1992L0.776897 16.9649C0.530616 16.719 0.335233 16.427 0.201925 16.1055C0.0686174 15.784 0 15.4394 0 15.0914C0 14.7434 0.0686174 14.3988 0.201925 14.0773C0.335233 13.7558 0.530616 13.4638 0.776897 13.2179L13.2442 0.750639C13.7489 0.26883 14.4199 0 15.1177 0C15.8155 0 16.4864 0.26883 16.9912 0.750639L23.2242 6.98362C23.7209 7.48058 24 8.15448 24 8.85714C24 9.5598 23.7209 10.2337 23.2242 10.7306L10.7569 23.1979C10.5118 23.4444 10.2203 23.6399 9.89912 23.773C9.57797 23.9061 9.23361 23.9741 8.88598 23.9732L8.88081 23.9745ZM8.25674 21.9536C8.33869 22.0356 8.43598 22.1006 8.54306 22.145C8.65014 22.1893 8.76491 22.2122 8.88081 22.2122C8.99672 22.2122 9.11149 22.1893 9.21857 22.145C9.32565 22.1006 9.42294 22.0356 9.50488 21.9536L21.976 9.48638C22.1412 9.32071 22.234 9.09628 22.234 8.86231C22.234 8.62833 22.1412 8.4039 21.976 8.23823L15.7417 2.00525C15.5736 1.84527 15.3504 1.75606 15.1183 1.75606C14.8862 1.75606 14.663 1.84527 14.4949 2.00525L2.02375 14.4699C1.85893 14.6355 1.7664 14.8597 1.7664 15.0934C1.7664 15.327 1.85893 15.5512 2.02375 15.7168L8.25674 21.9536Z" fill="#004BA1"/>
<path d="M14.5966 18.987C14.3626 18.9868 14.1382 18.8939 13.9725 18.7286L5.24456 10.0019C5.16269 9.92004 5.09775 9.82285 5.05344 9.71588C5.00913 9.60892 4.98633 9.49427 4.98633 9.37849C4.98633 9.2627 5.00913 9.14806 5.05344 9.04109C5.09775 8.93412 5.16269 8.83693 5.24456 8.75506C5.32643 8.67319 5.42362 8.60825 5.53059 8.56394C5.63756 8.51963 5.75221 8.49683 5.86799 8.49683C5.98377 8.49683 6.09842 8.51963 6.20538 8.56394C6.31235 8.60825 6.40955 8.67319 6.49142 8.75506L15.2194 17.483C15.3845 17.6485 15.4773 17.8727 15.4773 18.1065C15.4773 18.3402 15.3845 18.5645 15.2194 18.7299C15.138 18.8122 15.041 18.8775 14.934 18.9218C14.8271 18.9662 14.7124 18.9888 14.5966 18.9883V18.987Z" fill="#004BA1"/>
<path d="M19.9129 24.361C19.7301 24.5431 19.4829 24.6459 19.2249 24.647L5.55963 24.6479C5.30084 24.6479 5.05265 24.5451 4.86966 24.3621C4.68667 24.1791 4.58386 23.9309 4.58386 23.6721C4.58386 23.4133 4.68667 23.1651 4.86966 22.9821C5.05265 22.7992 5.30084 22.6964 5.55963 22.6964L19.2249 22.6973C19.4836 22.6975 19.7316 22.8004 19.9146 22.9834C20.0975 23.1663 20.2004 23.4143 20.2007 23.673C20.2013 23.801 20.1764 23.9279 20.1274 24.0461C20.0785 24.1644 20.0065 24.2718 19.9156 24.3619L19.9129 24.361Z" fill="#004BA1"/>
</svg>
