<svg width="33" height="40" viewBox="0 0 33 40" fill="none" xmlns="http://www.w3.org/2000/svg">
<path d="M18.9752 6.89822C18.7562 6.89822 18.5462 6.81122 18.3913 6.65637C18.2365 6.50151 18.1495 6.29148 18.1495 6.07248V3.30046C18.1495 2.8629 17.9757 2.44327 17.6663 2.13387C17.3569 1.82447 16.9372 1.65065 16.4997 1.65065C16.0621 1.65065 15.6425 1.82447 15.3331 2.13387C15.0237 2.44327 14.8499 2.8629 14.8499 3.30046V6.07248C14.8549 6.18393 14.8373 6.29525 14.7981 6.39971C14.7589 6.50417 14.6989 6.5996 14.6219 6.68025C14.5448 6.7609 14.4521 6.82509 14.3495 6.86894C14.2469 6.91279 14.1365 6.9354 14.025 6.9354C13.9134 6.9354 13.803 6.91279 13.7004 6.86894C13.5978 6.82509 13.5052 6.7609 13.4281 6.68025C13.351 6.5996 13.291 6.50417 13.2518 6.39971C13.2126 6.29525 13.195 6.18393 13.2001 6.07248V3.30046C13.2001 2.42512 13.5478 1.58564 14.1667 0.966683C14.7857 0.347726 15.6252 0 16.5005 0C17.3759 0 18.2153 0.347726 18.8343 0.966683C19.4533 1.58564 19.801 2.42512 19.801 3.30046V6.07248C19.8012 6.18098 19.78 6.28846 19.7386 6.38874C19.6972 6.48902 19.6363 6.58014 19.5596 6.65686C19.4829 6.73358 19.3918 6.7944 19.2915 6.83582C19.1912 6.87724 19.0837 6.89844 18.9752 6.89822Z" fill="#323250"/>
<path d="M16.4987 39.6049C14.9675 39.6031 13.4996 38.9941 12.417 37.9114C11.3343 36.8288 10.7253 35.3608 10.7235 33.8297C10.7185 33.7183 10.7361 33.6069 10.7753 33.5025C10.8145 33.398 10.8744 33.3026 10.9515 33.2219C11.0286 33.1413 11.1212 33.0771 11.2238 33.0333C11.3264 32.9894 11.4368 32.9668 11.5484 32.9668C11.66 32.9668 11.7704 32.9894 11.873 33.0333C11.9756 33.0771 12.0682 33.1413 12.1453 33.2219C12.2224 33.3026 12.2823 33.398 12.3215 33.5025C12.3607 33.6069 12.3783 33.7183 12.3733 33.8297C12.3733 34.9238 12.8079 35.9731 13.5816 36.7468C14.3553 37.5205 15.4046 37.9551 16.4987 37.9551C17.5928 37.9551 18.6421 37.5205 19.4157 36.7468C20.1894 35.9731 20.624 34.9238 20.624 33.8297C20.619 33.7183 20.6366 33.6069 20.6758 33.5025C20.715 33.398 20.775 33.3026 20.8521 33.2219C20.9291 33.1413 21.0218 33.0771 21.1244 33.0333C21.227 32.9894 21.3374 32.9668 21.4489 32.9668C21.5605 32.9668 21.6709 32.9894 21.7735 33.0333C21.8761 33.0771 21.9687 33.1413 22.0458 33.2219C22.1229 33.3026 22.1829 33.398 22.2221 33.5025C22.2613 33.6069 22.2789 33.7183 22.2739 33.8297C22.2721 35.3608 21.6631 36.8288 20.5804 37.9114C19.4977 38.9941 18.0298 39.6031 16.4987 39.6049Z" fill="#323250"/>
<path d="M30.5256 34.6534H2.47375C1.96812 34.653 1.47474 34.4979 1.05994 34.2087C0.645146 33.9196 0.328832 33.5104 0.153537 33.0361C-0.0217585 32.5618 -0.0476272 32.0453 0.0794098 31.5559C0.206447 31.0665 0.480297 30.6277 0.864132 30.2986C2.14395 29.2211 3.17262 27.8768 3.87802 26.3598C4.58343 24.8428 4.94849 23.1899 4.94763 21.5169V16.5088C5.04321 13.509 6.30209 10.6639 8.45793 8.5757C10.6138 6.48746 13.4974 5.31982 16.4988 5.31982C19.5002 5.31982 22.3839 6.48746 24.5397 8.5757C26.6955 10.6639 27.9544 13.509 28.05 16.5088V21.5219C28.0484 23.192 28.4119 24.8422 29.1149 26.3571C29.818 27.872 30.8436 29.2149 32.1201 30.2919C32.5082 30.619 32.7863 31.0576 32.9168 31.5481C33.0473 32.0387 33.0238 32.5574 32.8496 33.0342C32.6754 33.511 32.3589 33.9226 31.9429 34.2135C31.5268 34.5043 31.0315 34.6602 30.5239 34.6601L30.5256 34.6534ZM16.4997 6.60158C13.8735 6.60424 11.3558 7.64911 9.49949 9.50669C7.64316 11.3643 6.6 13.8827 6.59911 16.5088V21.5219C6.60092 23.4321 6.18527 25.3196 5.38125 27.0523C4.57723 28.785 3.40428 30.3211 1.94447 31.5531C1.81423 31.6616 1.72062 31.8076 1.67641 31.9713C1.63219 32.1349 1.63952 32.3082 1.69739 32.4676C1.75526 32.6269 1.86086 32.7645 1.99979 32.8616C2.13873 32.9587 2.30423 33.0107 2.47375 33.0103H30.5256C30.694 33.0099 30.8584 32.9579 30.9965 32.8614C31.1346 32.765 31.2399 32.6285 31.2982 32.4705C31.3566 32.3124 31.3651 32.1403 31.3228 31.9772C31.2805 31.8141 31.1894 31.6679 31.0616 31.5581C29.6004 30.3258 28.4261 28.7891 27.621 27.0555C26.8158 25.3219 26.3992 23.4333 26.4002 21.5219V16.5088C26.3975 13.8839 25.3536 11.3672 23.4975 9.51102C21.6413 7.65488 19.1246 6.61094 16.4997 6.60828V6.60158Z" fill="#323250"/>
</svg>
