<svg width="35" height="32" viewBox="0 0 35 32" fill="none" xmlns="http://www.w3.org/2000/svg">
<path d="M34.4841 27.7788L19.8317 1.60823C19.6141 1.14823 19.2811 0.756584 18.8674 0.473829C18.4537 0.191075 17.9742 0.0274878 17.4785 0C16.9829 0.0274878 16.5034 0.191075 16.0897 0.473829C15.6759 0.756584 15.343 1.14823 15.1253 1.60823L0.474966 27.7788C0.197833 28.2032 0.0356677 28.6962 0.00524228 29.2069C-0.0251832 29.7175 0.0772361 30.2273 0.301907 30.6835C0.572852 31.112 0.949887 31.4581 1.39402 31.6861C1.83816 31.914 2.33328 32.0154 2.82817 31.9799H32.1309C32.629 32.0437 33.1342 31.9548 33.5836 31.7243C34.033 31.4937 34.4065 31.1317 34.6575 30.6835C34.9086 30.2354 35.026 29.7208 34.9952 29.2042C34.9643 28.6876 34.7866 28.1918 34.4841 27.7788ZM32.8927 29.625C32.8251 29.744 32.5665 29.865 32.1408 29.865H2.82618C2.4005 29.865 2.1419 29.744 2.07427 29.625C2.00664 29.506 2.03449 29.2147 2.24733 28.8332L16.9017 2.6667C17.1145 2.28516 17.3453 2.1149 17.4785 2.1149C17.6118 2.1149 17.8426 2.28516 18.0574 2.6667L32.7097 28.8373C32.9226 29.2168 32.9504 29.5081 32.8828 29.627L32.8927 29.625Z" fill="#323250"/>
<path d="M17.8978 23.1162C17.5047 23.1162 17.1204 23.2359 16.7935 23.4603C16.4667 23.6846 16.2119 24.0035 16.0615 24.3765C15.911 24.7496 15.8717 25.1601 15.9483 25.5562C16.025 25.9522 16.2143 26.316 16.4923 26.6015C16.7703 26.8871 17.1245 27.0815 17.51 27.1603C17.8956 27.239 18.2953 27.1986 18.6585 27.0441C19.0217 26.8896 19.3321 26.6279 19.5505 26.2921C19.7689 25.9564 19.8855 25.5617 19.8855 25.1579C19.8849 24.6166 19.6754 24.0975 19.3027 23.7148C18.9301 23.332 18.4248 23.1167 17.8978 23.1162ZM17.8978 25.6334C17.8062 25.6334 17.7168 25.6055 17.6406 25.5532C17.5645 25.501 17.5052 25.4267 17.4701 25.3398C17.4351 25.2529 17.4259 25.1573 17.4438 25.0651C17.4616 24.9728 17.5057 24.8881 17.5705 24.8216C17.6352 24.7551 17.7177 24.7098 17.8075 24.6915C17.8973 24.6731 17.9904 24.6825 18.075 24.7185C18.1596 24.7545 18.2319 24.8154 18.2827 24.8936C18.3336 24.9718 18.3607 25.0638 18.3607 25.1579C18.3618 25.221 18.3506 25.2837 18.3278 25.3423C18.305 25.401 18.2711 25.4543 18.228 25.4994C18.1849 25.5444 18.1335 25.5801 18.0768 25.6045C18.0201 25.6289 17.9593 25.6415 17.8978 25.6414V25.6334Z" fill="#323250"/>
<path d="M17.8978 11.2002C17.3708 11.2007 16.8655 11.416 16.4929 11.7988C16.1203 12.1815 15.9107 12.7005 15.9102 13.2418V20.1216C15.9102 20.6633 16.1197 21.1829 16.4926 21.566C16.8655 21.949 17.3714 22.1642 17.8988 22.1642C18.4262 22.1642 18.932 21.949 19.305 21.566C19.6779 21.1829 19.8874 20.6633 19.8874 20.1216V13.2418C19.8869 12.7002 19.6771 12.1809 19.304 11.798C18.9309 11.4152 18.4251 11.2002 17.8978 11.2002ZM18.3607 20.1236C18.3607 20.2497 18.312 20.3707 18.2252 20.4598C18.1383 20.549 18.0206 20.5991 17.8978 20.5991C17.775 20.5991 17.6573 20.549 17.5704 20.4598C17.4836 20.3707 17.4349 20.2497 17.4349 20.1236V13.2439C17.4349 13.1178 17.4836 12.9968 17.5704 12.9076C17.6573 12.8185 17.775 12.7684 17.8978 12.7684C18.0206 12.7684 18.1383 12.8185 18.2252 12.9076C18.312 12.9968 18.3607 13.1178 18.3607 13.2439V20.1236Z" fill="#323250"/>
</svg>
