<svg width="45" height="40" viewBox="0 0 45 40" fill="none" xmlns="http://www.w3.org/2000/svg">
<g id="siren">
<g id="Group 2184">
<g id="Group 2183">
<path id="Path 2720" d="M27.3466 21.1581C27.2284 21.153 27.1114 21.1834 27.0106 21.2454C26.9097 21.3073 26.8297 21.398 26.7809 21.5058C26.732 21.6136 26.7166 21.7336 26.7365 21.8502C26.7564 21.9669 26.8107 22.0749 26.8925 22.1604C26.9743 22.246 27.0799 22.305 27.1955 22.3301C27.3112 22.3551 27.4317 22.3449 27.5415 22.3009C27.6514 22.2569 27.7456 22.181 27.8119 22.0831C27.8783 21.9851 27.9138 21.8694 27.9139 21.7511C27.9158 21.6749 27.9025 21.599 27.875 21.528C27.8474 21.4569 27.8061 21.3919 27.7534 21.3368C27.7007 21.2817 27.6377 21.2376 27.5679 21.2069C27.4981 21.1763 27.4229 21.1597 27.3466 21.1581Z" fill="#323250" stroke="#323250" stroke-width="0.2"/>
</g>
</g>
<g id="Group 2186">
<g id="Group 2185">
<path id="Path 2721" d="M35.0194 33.3867H34.0845L31.5369 19.1066C31.3077 17.8447 30.6427 16.7034 29.6581 15.8816C28.6734 15.0598 27.4315 14.6098 26.149 14.6101H18.8538C17.5706 14.6096 16.328 15.06 15.3432 15.8827C14.3583 16.7053 13.6939 17.8478 13.4659 19.1105L10.9182 33.3867H9.98329C9.36105 33.3878 8.76462 33.6355 8.32481 34.0757C7.885 34.5159 7.63773 35.1125 7.63721 35.7348V38.8635C7.63721 38.9674 7.65766 39.0702 7.69739 39.1661C7.73712 39.262 7.79535 39.3492 7.86877 39.4226C7.94218 39.496 8.02933 39.5542 8.12525 39.594C8.22117 39.6337 8.32398 39.6542 8.4278 39.6542H36.5927C36.6965 39.6542 36.7993 39.6337 36.8952 39.594C36.9912 39.5542 37.0783 39.496 37.1517 39.4226C37.2252 39.3492 37.2834 39.262 37.3231 39.1661C37.3629 39.0702 37.3833 38.9674 37.3833 38.8635V35.7348C37.383 35.4252 37.3216 35.1187 37.2025 34.8329C37.0835 34.5471 36.9091 34.2876 36.6894 34.0694C36.4697 33.8512 36.2091 33.6786 35.9225 33.5614C35.6359 33.4443 35.329 33.3849 35.0194 33.3867ZM15.0055 19.3873C15.169 18.4859 15.6439 17.6705 16.3472 17.0835C17.0505 16.4965 17.9377 16.1751 18.8538 16.1755H26.149C27.0648 16.1751 27.9517 16.4962 28.655 17.0828C29.3582 17.6694 29.8333 18.4843 29.9972 19.3853L32.4955 33.3867H12.5092L15.0055 19.3873ZM35.8021 38.0809H9.20258V35.7328C9.20258 35.5231 9.28588 35.322 9.43414 35.1738C9.58241 35.0255 9.7835 34.9422 9.99318 34.9422H35.0194C35.2291 34.9422 35.4302 35.0255 35.5785 35.1738C35.7267 35.322 35.81 35.5231 35.81 35.7328L35.8021 38.0809Z" fill="#323250" stroke="#323250" stroke-width="0.2"/>
</g>
</g>
<g id="Group 2188">
<g id="Group 2187">
<path id="Path 2722" d="M29.1772 28.7282L28.3451 23.9589C28.3339 23.8839 28.3078 23.812 28.2683 23.7472C28.2288 23.6825 28.1768 23.6262 28.1153 23.5818C28.0538 23.5375 27.984 23.5059 27.9101 23.4888C27.8362 23.4718 27.7597 23.4696 27.685 23.4826C27.5348 23.5155 27.4033 23.6053 27.3181 23.7333C27.2329 23.8612 27.2008 24.0172 27.2284 24.1684L28.0605 28.9377C28.0718 29.0127 28.0979 29.0847 28.1374 29.1494C28.1769 29.2142 28.2289 29.2704 28.2904 29.3148C28.3519 29.3591 28.4216 29.3908 28.4955 29.4078C28.5694 29.4249 28.6459 29.427 28.7207 29.414C28.8708 29.3812 29.0023 29.2913 29.0875 29.1634C29.1727 29.0354 29.2048 28.8794 29.1772 28.7282Z" fill="#323250" stroke="#323250" stroke-width="0.2"/>
</g>
</g>
<g id="Group 2190">
<g id="Group 2189">
<path id="Path 2723" d="M43.1602 21.1582H35.9381C35.7153 21.1582 35.5017 21.2467 35.3442 21.4042C35.1866 21.5618 35.0981 21.7754 35.0981 21.9982C35.0981 22.221 35.1866 22.4347 35.3442 22.5922C35.5017 22.7497 35.7153 22.8382 35.9381 22.8382H43.1602C43.383 22.8382 43.5967 22.7497 43.7542 22.5922C43.9117 22.4347 44.0002 22.221 44.0002 21.9982C44.0002 21.7754 43.9117 21.5618 43.7542 21.4042C43.5967 21.2467 43.383 21.1582 43.1602 21.1582Z" fill="#323250" stroke="#323250" stroke-width="0.2"/>
</g>
</g>
<g id="Group 2192">
<g id="Group 2191">
<path id="Path 2724" d="M9.06208 21.1582H1.84001C1.61722 21.1582 1.40356 21.2467 1.24603 21.4042C1.0885 21.5618 1 21.7754 1 21.9982C1 22.221 1.0885 22.4347 1.24603 22.5922C1.40356 22.7497 1.61722 22.8382 1.84001 22.8382H9.06208C9.28486 22.8382 9.49852 22.7497 9.65605 22.5922C9.81359 22.4347 9.90209 22.221 9.90209 21.9982C9.90209 21.7754 9.81359 21.5618 9.65605 21.4042C9.49852 21.2467 9.28486 21.1582 9.06208 21.1582Z" fill="#323250" stroke="#323250" stroke-width="0.2"/>
</g>
</g>
<g id="Group 2194">
<g id="Group 2193">
<path id="Path 2725" d="M37.3496 7.14882C37.1922 6.99191 36.9789 6.90381 36.7566 6.90381C36.5343 6.90381 36.3211 6.99191 36.1637 7.14882L31.4201 11.8924C31.2778 12.0525 31.2021 12.261 31.2084 12.4751C31.2147 12.6892 31.3026 12.8929 31.454 13.0444C31.6055 13.1958 31.8091 13.2837 32.0233 13.29C32.2374 13.2963 32.4459 13.2206 32.606 13.0783L37.3496 8.33471C37.5065 8.17726 37.5946 7.96403 37.5946 7.74175C37.5946 7.51947 37.5065 7.30627 37.3496 7.14882Z" fill="#323250" stroke="#323250" stroke-width="0.2"/>
</g>
</g>
<g id="Group 2196">
<g id="Group 2195">
<path id="Path 2726" d="M13.5943 11.9003L8.8507 7.15676C8.77466 7.07119 8.68194 7.00207 8.57822 6.95364C8.47449 6.90521 8.36196 6.87849 8.24754 6.87512C8.13312 6.87175 8.01922 6.8918 7.91282 6.93405C7.80643 6.9763 7.70979 7.03985 7.62885 7.12079C7.54791 7.20174 7.48435 7.29838 7.44211 7.40477C7.39986 7.51116 7.37981 7.62506 7.38318 7.73948C7.38654 7.85391 7.41326 7.96644 7.46169 8.07016C7.51013 8.17388 7.57925 8.2666 7.66481 8.34264L12.4084 13.0862C12.5685 13.2285 12.777 13.3043 12.9911 13.298C13.2052 13.2917 13.4089 13.2038 13.5604 13.0523C13.7118 12.9008 13.7997 12.6972 13.806 12.4831C13.8123 12.2689 13.7366 12.0605 13.5943 11.9003Z" fill="#323250" stroke="#323250" stroke-width="0.2"/>
</g>
</g>
<g id="Group 2198">
<g id="Group 2197">
<path id="Path 2727" d="M22.5007 1C22.2779 1 22.0642 1.0885 21.9067 1.24603C21.7491 1.40356 21.6606 1.61722 21.6606 1.84V8.56005C21.6606 8.78284 21.7491 8.9965 21.9067 9.15403C22.0642 9.31156 22.2779 9.40006 22.5007 9.40006C22.7234 9.40006 22.9371 9.31156 23.0946 9.15403C23.2522 8.9965 23.3407 8.78284 23.3407 8.56005V1.84C23.3407 1.61722 23.2522 1.40356 23.0946 1.24603C22.9371 1.0885 22.7234 1 22.5007 1Z" fill="#323250" stroke="#323250" stroke-width="0.2"/>
</g>
</g>
</g>
</svg>
