<svg width="39" height="35" viewBox="0 0 39 35" fill="none" xmlns="http://www.w3.org/2000/svg">
<path d="M33.355 9.75021H33.1089V9.60605C33.105 8.45957 32.6146 7.36106 31.7447 6.5502C30.8749 5.73935 29.6961 5.28196 28.4657 5.27784H20.9837C20.9367 5.27781 20.8903 5.26868 20.8473 5.25104C20.8043 5.2334 20.7657 5.20763 20.734 5.17537L18.0181 2.40858C17.5825 1.96557 17.0529 1.61163 16.4628 1.36917C15.8728 1.12671 15.2351 1.001 14.5903 1H5.64317C4.41277 1.00412 3.23404 1.46151 2.36418 2.27236C1.49432 3.08322 1.00393 4.18173 1 5.32821L1 29.6718C1.00393 30.8186 1.49458 31.9173 2.36484 32.7283C3.23511 33.5392 4.41431 33.9963 5.64504 34H33.355C34.5857 33.9963 35.7649 33.5392 36.6352 32.7283C37.5054 31.9173 37.9961 30.8186 38 29.6718V14.0784C37.9961 12.9316 37.5054 11.8329 36.6352 11.022C35.7649 10.2111 34.5857 9.75387 33.355 9.75021ZM6.06443 32.7755H5.64504C4.76225 32.7741 3.91606 32.4466 3.29201 31.8648C2.66795 31.283 2.31696 30.4944 2.31597 29.6718V5.32821C2.31646 4.50549 2.6673 3.71657 3.29146 3.13466C3.91562 2.55274 4.76209 2.22539 5.64504 2.22447H14.5921C15.0546 2.22472 15.512 2.31455 15.9353 2.48826C16.3585 2.66198 16.7384 2.91579 17.0507 3.23358L19.7628 6.00211C19.9179 6.15998 20.1066 6.28611 20.3167 6.37251C20.5269 6.45892 20.754 6.50371 20.9837 6.50405H28.4657C29.3484 6.50497 30.1946 6.83208 30.8187 7.41362C31.4428 7.99516 31.7938 8.78363 31.7948 9.60605V9.75021H14.0479C12.8145 9.75021 11.6315 10.2058 10.758 11.0171C9.88455 11.8284 9.39186 12.9292 9.38791 14.0784V29.6718C9.38692 30.4944 9.03593 31.283 8.41187 31.8648C7.78782 32.4466 6.94163 32.7741 6.05884 32.7755H6.06443ZM36.6859 29.6718C36.6849 30.4944 36.3339 31.283 35.7099 31.8648C35.0858 32.4466 34.2396 32.7741 33.3568 32.7755H9.29844C9.74473 32.3727 10.0995 31.8903 10.3416 31.3571C10.5837 30.8239 10.7081 30.2508 10.7076 29.6718V14.0784C10.7079 13.6702 10.7945 13.266 10.9625 12.8889C11.1306 12.5119 11.3768 12.1695 11.6871 11.8812C11.9973 11.5929 12.3655 11.3645 12.7706 11.2089C13.1757 11.0534 13.6097 10.9738 14.0479 10.9747H33.355C34.2381 10.9756 35.0847 11.3029 35.7092 11.8848C36.3337 12.4666 36.6849 13.2555 36.6859 14.0784V29.6718Z" fill="#323250" stroke="#323250" stroke-width="0.2"/>
<path d="M23.702 21.9397C24.4821 21.9397 25.2447 21.7241 25.8933 21.3203C26.5419 20.9165 27.0474 20.3425 27.346 19.6709C27.6445 18.9994 27.7226 18.2604 27.5704 17.5475C27.4182 16.8346 27.0426 16.1798 26.491 15.6658C25.9394 15.1518 25.2366 14.8018 24.4715 14.66C23.7064 14.5182 22.9133 14.591 22.1926 14.8691C21.4719 15.1473 20.8559 15.6183 20.4225 16.2227C19.9891 16.8271 19.7578 17.5376 19.7578 18.2645C19.7578 18.7471 19.8598 19.225 20.058 19.6709C20.2563 20.1168 20.5468 20.522 20.913 20.8632C21.2793 21.2045 21.7141 21.4752 22.1926 21.6599C22.6712 21.8446 23.1841 21.9397 23.702 21.9397ZM23.702 15.8138C24.2222 15.8138 24.7307 15.9576 25.1632 16.2269C25.5957 16.4961 25.9328 16.8789 26.1319 17.3267C26.3309 17.7745 26.383 18.2672 26.2815 18.7426C26.1801 19.218 25.9296 19.6547 25.5618 19.9974C25.1939 20.3401 24.7253 20.5735 24.2151 20.6681C23.7049 20.7627 23.1761 20.7141 22.6955 20.5286C22.2149 20.3432 21.8042 20.0291 21.5152 19.626C21.2262 19.223 21.0719 18.7492 21.0719 18.2645C21.0719 17.6146 21.349 16.9912 21.8422 16.5316C22.3355 16.072 23.0045 15.8138 23.702 15.8138Z" fill="#323250" stroke="#323250" stroke-width="0.2"/>
<path d="M23.702 23.1245C22.1581 23.1259 20.6778 23.698 19.5861 24.7152C18.4944 25.7325 17.8804 27.1118 17.8789 28.5504C17.8789 28.713 17.9482 28.869 18.0716 28.9839C18.195 29.0989 18.3624 29.1635 18.5369 29.1635H28.8671C29.0416 29.1635 29.2089 29.0989 29.3323 28.9839C29.4557 28.869 29.5251 28.713 29.5251 28.5504C29.5236 27.1118 28.9096 25.7325 27.8179 24.7152C26.7262 23.698 25.2459 23.1259 23.702 23.1245ZM19.2415 27.9373C19.401 26.9415 19.9389 26.0322 20.7574 25.3749C21.5759 24.7176 22.6205 24.3561 23.7011 24.3561C24.7816 24.3561 25.8262 24.7176 26.6447 25.3749C27.4632 26.0322 28.0011 26.9415 28.1606 27.9373H19.2415Z" fill="#323250" stroke="#323250" stroke-width="0.2"/>
</svg>
