<?xml version="1.0" encoding="UTF-8"?>
<svg xmlns="http://www.w3.org/2000/svg" xmlns:xlink="http://www.w3.org/1999/xlink" width="33px" height="33px" viewBox="0 0 33 33" version="1.1">
<g id="surface1">
<path style=" stroke:none;fill-rule:nonzero;fill:rgb(0%,31.372549%,62.745098%);fill-opacity:1;" d="M 31.3125 13.039062 L 28.996094 12.644531 C 28.753906 11.867188 28.445312 11.113281 28.066406 10.394531 L 29.429688 8.484375 C 29.710938 8.09375 29.84375 7.613281 29.804688 7.132812 C 29.761719 6.648438 29.550781 6.199219 29.210938 5.859375 L 27.148438 3.808594 C 26.960938 3.617188 26.738281 3.464844 26.488281 3.363281 C 26.242188 3.257812 25.976562 3.207031 25.707031 3.207031 C 25.285156 3.207031 24.871094 3.339844 24.53125 3.585938 L 22.613281 4.953125 C 21.867188 4.558594 21.089844 4.234375 20.28125 3.992188 L 19.898438 1.703125 C 19.820312 1.226562 19.574219 0.796875 19.207031 0.484375 C 18.839844 0.171875 18.371094 0 17.890625 0 L 14.988281 0 C 14.503906 0 14.035156 0.171875 13.667969 0.480469 C 13.296875 0.792969 13.050781 1.226562 12.972656 1.703125 L 12.574219 4.050781 C 11.800781 4.292969 11.046875 4.609375 10.332031 4.996094 L 8.4375 3.628906 C 8.042969 3.347656 7.566406 3.21875 7.082031 3.257812 C 6.601562 3.296875 6.152344 3.507812 5.8125 3.851562 L 3.75 5.902344 C 3.410156 6.242188 3.199219 6.695312 3.160156 7.175781 C 3.117188 7.65625 3.25 8.136719 3.53125 8.527344 L 4.90625 10.464844 C 4.53125 11.183594 4.226562 11.9375 3.992188 12.714844 L 1.703125 13.101562 C 1.226562 13.179688 0.792969 13.425781 0.480469 13.796875 C 0.167969 14.167969 0 14.636719 0 15.117188 L 0 18.019531 C 0 18.503906 0.167969 18.972656 0.480469 19.339844 C 0.792969 19.707031 1.226562 19.953125 1.703125 20.035156 L 4.046875 20.433594 C 4.289062 21.210938 4.605469 21.960938 4.992188 22.675781 L 3.632812 24.5625 C 3.351562 24.957031 3.222656 25.4375 3.261719 25.917969 C 3.300781 26.398438 3.511719 26.851562 3.855469 27.191406 L 5.910156 29.246094 C 6.097656 29.4375 6.324219 29.585938 6.570312 29.691406 C 6.816406 29.792969 7.082031 29.847656 7.351562 29.84375 C 7.773438 29.847656 8.1875 29.714844 8.53125 29.464844 L 10.46875 28.085938 C 11.164062 28.453125 11.894531 28.753906 12.644531 28.988281 L 13.03125 31.304688 C 13.109375 31.777344 13.355469 32.210938 13.726562 32.519531 C 14.09375 32.832031 14.558594 33 15.042969 33 L 17.949219 33 C 18.433594 33 18.902344 32.832031 19.269531 32.519531 C 19.636719 32.207031 19.882812 31.773438 19.964844 31.296875 L 20.355469 28.980469 C 21.132812 28.742188 21.886719 28.429688 22.605469 28.050781 L 24.515625 29.417969 C 24.859375 29.664062 25.277344 29.796875 25.699219 29.796875 C 25.96875 29.796875 26.234375 29.742188 26.480469 29.640625 C 26.730469 29.539062 26.953125 29.386719 27.140625 29.195312 L 29.199219 27.140625 C 29.539062 26.800781 29.75 26.347656 29.789062 25.867188 C 29.828125 25.386719 29.699219 24.90625 29.417969 24.515625 L 28.054688 22.597656 C 28.433594 21.878906 28.746094 21.125 28.984375 20.347656 L 31.300781 19.960938 C 31.773438 19.882812 32.207031 19.636719 32.519531 19.269531 C 32.828125 18.902344 33 18.433594 33 17.953125 L 33 15.050781 C 33.007812 14.570312 32.839844 14.101562 32.53125 13.730469 C 32.21875 13.359375 31.785156 13.117188 31.3125 13.039062 Z M 31.152344 17.953125 C 31.152344 17.996094 31.136719 18.039062 31.109375 18.070312 C 31.082031 18.101562 31.042969 18.125 31.003906 18.132812 L 28.105469 18.613281 C 27.929688 18.644531 27.761719 18.722656 27.628906 18.84375 C 27.496094 18.964844 27.402344 19.125 27.355469 19.296875 C 27.097656 20.3125 26.691406 21.285156 26.15625 22.1875 C 26.066406 22.339844 26.019531 22.519531 26.027344 22.699219 C 26.035156 22.878906 26.09375 23.054688 26.199219 23.199219 L 27.902344 25.601562 C 27.925781 25.636719 27.9375 25.679688 27.933594 25.722656 C 27.929688 25.765625 27.910156 25.804688 27.878906 25.835938 L 25.824219 27.890625 C 25.808594 27.90625 25.789062 27.921875 25.765625 27.929688 C 25.742188 27.941406 25.71875 27.945312 25.695312 27.945312 C 25.65625 27.945312 25.621094 27.933594 25.589844 27.910156 L 23.199219 26.207031 C 23.050781 26.105469 22.878906 26.042969 22.699219 26.035156 C 22.519531 26.03125 22.339844 26.074219 22.183594 26.164062 C 21.285156 26.703125 20.3125 27.105469 19.296875 27.367188 C 19.121094 27.410156 18.960938 27.503906 18.839844 27.636719 C 18.71875 27.769531 18.640625 27.9375 18.613281 28.117188 L 18.125 31.011719 C 18.117188 31.054688 18.097656 31.089844 18.0625 31.121094 C 18.03125 31.148438 17.988281 31.160156 17.945312 31.160156 L 15.050781 31.160156 C 15.007812 31.160156 14.964844 31.148438 14.933594 31.121094 C 14.898438 31.089844 14.878906 31.054688 14.871094 31.011719 L 14.386719 28.117188 C 14.359375 27.9375 14.28125 27.773438 14.160156 27.640625 C 14.039062 27.507812 13.878906 27.410156 13.707031 27.367188 C 12.714844 27.109375 11.765625 26.71875 10.878906 26.207031 C 10.738281 26.125 10.574219 26.082031 10.410156 26.082031 C 10.21875 26.082031 10.027344 26.144531 9.871094 26.257812 L 7.460938 27.96875 C 7.429688 27.988281 7.394531 28 7.355469 28.003906 C 7.332031 28.003906 7.308594 28 7.285156 27.988281 C 7.261719 27.980469 7.242188 27.964844 7.226562 27.949219 L 5.171875 25.894531 C 5.140625 25.863281 5.121094 25.820312 5.117188 25.78125 C 5.113281 25.738281 5.125 25.695312 5.148438 25.660156 L 6.847656 23.28125 C 6.949219 23.132812 7.007812 22.957031 7.015625 22.777344 C 7.023438 22.59375 6.980469 22.417969 6.886719 22.261719 C 6.347656 21.363281 5.9375 20.390625 5.675781 19.378906 C 5.628906 19.207031 5.53125 19.046875 5.398438 18.929688 C 5.265625 18.808594 5.101562 18.726562 4.925781 18.695312 L 2.007812 18.199219 C 1.964844 18.191406 1.929688 18.171875 1.898438 18.136719 C 1.871094 18.105469 1.859375 18.0625 1.859375 18.019531 L 1.859375 15.117188 C 1.859375 15.074219 1.871094 15.035156 1.898438 15 C 1.929688 14.96875 1.964844 14.945312 2.007812 14.941406 L 4.882812 14.457031 C 5.0625 14.425781 5.226562 14.347656 5.359375 14.222656 C 5.492188 14.101562 5.589844 13.941406 5.632812 13.765625 C 5.886719 12.75 6.28125 11.777344 6.8125 10.871094 C 6.902344 10.71875 6.945312 10.539062 6.9375 10.363281 C 6.929688 10.183594 6.867188 10.011719 6.761719 9.867188 L 5.054688 7.453125 C 5.03125 7.417969 5.019531 7.375 5.023438 7.332031 C 5.027344 7.289062 5.042969 7.25 5.074219 7.21875 L 7.128906 5.164062 C 7.144531 5.148438 7.167969 5.132812 7.1875 5.121094 C 7.210938 5.113281 7.234375 5.109375 7.261719 5.109375 C 7.296875 5.109375 7.332031 5.121094 7.363281 5.144531 L 9.742188 6.839844 C 9.890625 6.945312 10.0625 7.003906 10.246094 7.011719 C 10.425781 7.019531 10.605469 6.972656 10.761719 6.882812 C 11.660156 6.339844 12.628906 5.933594 13.640625 5.667969 C 13.816406 5.621094 13.972656 5.527344 14.09375 5.394531 C 14.214844 5.261719 14.292969 5.09375 14.324219 4.917969 L 14.820312 2.003906 C 14.828125 1.960938 14.851562 1.921875 14.882812 1.894531 C 14.914062 1.867188 14.957031 1.851562 15 1.851562 L 17.902344 1.851562 C 17.945312 1.851562 17.988281 1.867188 18.019531 1.894531 C 18.050781 1.921875 18.074219 1.960938 18.082031 2.003906 L 18.5625 4.875 C 18.59375 5.054688 18.675781 5.222656 18.796875 5.355469 C 18.921875 5.488281 19.078125 5.582031 19.253906 5.625 C 20.292969 5.886719 21.289062 6.296875 22.210938 6.839844 C 22.367188 6.933594 22.546875 6.976562 22.726562 6.96875 C 22.90625 6.960938 23.078125 6.902344 23.226562 6.796875 L 25.601562 5.101562 C 25.632812 5.078125 25.671875 5.066406 25.707031 5.066406 C 25.730469 5.066406 25.753906 5.070312 25.777344 5.082031 C 25.800781 5.089844 25.820312 5.105469 25.835938 5.121094 L 27.890625 7.175781 C 27.921875 7.207031 27.941406 7.246094 27.945312 7.289062 C 27.949219 7.332031 27.9375 7.375 27.914062 7.410156 L 26.210938 9.796875 C 26.105469 9.945312 26.046875 10.117188 26.039062 10.296875 C 26.03125 10.480469 26.074219 10.65625 26.167969 10.8125 C 26.703125 11.714844 27.105469 12.6875 27.367188 13.699219 C 27.410156 13.875 27.507812 14.035156 27.640625 14.15625 C 27.773438 14.277344 27.9375 14.355469 28.117188 14.382812 L 31.011719 14.871094 C 31.054688 14.878906 31.09375 14.902344 31.121094 14.933594 C 31.148438 14.964844 31.164062 15.007812 31.164062 15.050781 L 31.164062 17.953125 Z M 31.152344 17.953125 "/>
<path style=" stroke:none;fill-rule:nonzero;fill:rgb(0%,31.372549%,62.745098%);fill-opacity:1;" d="M 16.503906 9.375 C 15.097656 9.375 13.71875 9.792969 12.546875 10.574219 C 11.378906 11.359375 10.464844 12.46875 9.925781 13.769531 C 9.386719 15.070312 9.246094 16.503906 9.519531 17.882812 C 9.796875 19.265625 10.472656 20.535156 11.46875 21.53125 C 12.464844 22.527344 13.734375 23.203125 15.113281 23.480469 C 16.496094 23.753906 17.929688 23.613281 19.230469 23.074219 C 20.53125 22.535156 21.640625 21.621094 22.425781 20.453125 C 23.207031 19.28125 23.625 17.902344 23.625 16.496094 C 23.625 14.605469 22.875 12.796875 21.539062 11.460938 C 20.203125 10.125 18.390625 9.375 16.503906 9.375 Z M 16.503906 21.757812 C 15.464844 21.757812 14.445312 21.449219 13.582031 20.871094 C 12.714844 20.292969 12.042969 19.46875 11.644531 18.507812 C 11.246094 17.546875 11.140625 16.488281 11.34375 15.46875 C 11.546875 14.449219 12.050781 13.511719 12.785156 12.777344 C 13.519531 12.039062 14.457031 11.539062 15.476562 11.335938 C 16.5 11.132812 17.554688 11.238281 18.515625 11.636719 C 19.480469 12.035156 20.300781 12.707031 20.878906 13.574219 C 21.457031 14.4375 21.765625 15.457031 21.765625 16.496094 C 21.765625 17.890625 21.210938 19.230469 20.222656 20.214844 C 19.238281 21.203125 17.898438 21.757812 16.503906 21.757812 Z M 16.503906 21.757812 "/>
</g>
</svg>
