<svg width="31" height="33" viewBox="0 0 31 33" fill="none" xmlns="http://www.w3.org/2000/svg">
<path d="M14.7354 31.1091H6.12758C5.00467 31.1072 3.92833 30.6601 3.13445 29.866C2.34057 29.0718 1.8939 27.9953 1.89234 26.8724V6.12758C1.8939 5.00467 2.34057 3.92817 3.13445 3.13402C3.92833 2.33986 5.00467 1.89282 6.12758 1.89086H14.8743C15.125 1.89086 15.3655 1.79126 15.5428 1.61395C15.7201 1.43665 15.8197 1.19618 15.8197 0.945432C15.8197 0.694688 15.7201 0.454213 15.5428 0.276911C15.3655 0.0996077 15.125 0 14.8743 0L6.12758 0C4.50305 0.00195468 2.94561 0.648165 1.79689 1.79689C0.648166 2.94561 0.00195468 4.50304 0 6.12758V26.8724C0.00195468 28.497 0.648166 30.0544 1.79689 31.2031C2.94561 32.3518 4.50305 32.998 6.12758 33H14.7354C14.9862 33 15.2267 32.9004 15.404 32.7231C15.5813 32.5458 15.6809 32.3053 15.6809 32.0546C15.6809 31.8038 15.5813 31.5634 15.404 31.386C15.2267 31.2087 14.9862 31.1091 14.7354 31.1091V31.1091Z" fill="#323250" stroke="#323250" stroke-width="0.01"/>
<path d="M30.3098 15.8345L24.3004 9.82516C24.1229 9.64768 23.8822 9.54797 23.6312 9.54797C23.3802 9.54797 23.1395 9.64768 22.962 9.82516C22.7846 10.0026 22.6849 10.2434 22.6849 10.4944C22.6849 10.7453 22.7846 10.9861 22.962 11.1635L27.3598 15.5613H8.17932C7.92857 15.5613 7.6881 15.6609 7.5108 15.8382C7.3335 16.0155 7.23389 16.256 7.23389 16.5067C7.23389 16.7574 7.3335 16.9979 7.5108 17.1752C7.6881 17.3525 7.92857 17.4521 8.17932 17.4521H27.3612L22.9635 21.8499C22.8292 21.9818 22.7372 22.1508 22.6992 22.3352C22.6612 22.5197 22.679 22.7112 22.7503 22.8855C22.8216 23.0598 22.9432 23.2089 23.0996 23.3139C23.2559 23.4188 23.44 23.4749 23.6283 23.4748C23.7522 23.4751 23.875 23.4503 23.9892 23.4021C24.1034 23.3539 24.2067 23.2832 24.293 23.1942L30.3024 17.1847C30.3927 17.0972 30.4646 16.9926 30.5139 16.8769C30.5632 16.7613 30.589 16.6369 30.5897 16.5112C30.5904 16.3855 30.566 16.2609 30.5179 16.1447C30.4699 16.0285 30.3991 15.9231 30.3098 15.8345V15.8345Z" fill="#323250" stroke="#323250" stroke-width="0.01"/>
</svg>
