<svg width="24" height="17" viewBox="0 0 24 17" fill="none" xmlns="http://www.w3.org/2000/svg">
<path d="M11.6944 8.30666C12.5278 8.36834 13.3604 8.17755 14.0838 7.75916C14.8072 7.34076 15.3877 6.71416 15.7498 5.96103C16.1119 5.2079 16.2386 4.36316 16.1137 3.53691C15.9887 2.71067 15.6177 1.94123 15.049 1.32889C14.4804 0.716554 13.7405 0.289717 12.9257 0.104006C12.111 -0.0817056 11.2592 -0.0176739 10.4813 0.287752C9.70352 0.593178 9.03573 1.12584 8.56502 1.8163C8.09431 2.50677 7.84252 3.32302 7.84245 4.15866C7.80593 5.2188 8.19064 6.25027 8.91247 7.02756C9.63429 7.80485 10.6345 8.26473 11.6944 8.30666ZM11.6944 1.19567C12.2898 1.15146 12.8846 1.28763 13.4015 1.58643C13.9183 1.88522 14.3331 2.33278 14.5919 2.87077C14.8506 3.40877 14.9413 4.01223 14.8521 4.60251C14.7629 5.19279 14.4979 5.74249 14.0917 6.17998C13.6855 6.61747 13.1569 6.92245 12.5749 7.05516C11.9929 7.18787 11.3843 7.14216 10.8287 6.92398C10.273 6.70581 9.7959 6.3253 9.45963 5.83203C9.12335 5.33877 8.94348 4.75564 8.94344 4.15866C8.91721 3.40144 9.19189 2.66463 9.70741 2.10938C10.2229 1.55412 10.9374 1.22561 11.6944 1.19567Z" fill="#004BA1"/>
<path d="M18.1433 11.018C16.263 9.96349 14.1552 9.38017 12.0003 9.31801C9.84534 9.38017 7.73755 9.96349 5.85726 11.018C5.29067 11.3286 4.81881 11.7869 4.49184 12.3442C4.16486 12.9014 3.99498 13.5369 4.00026 14.183V14.725C3.99248 15.1667 4.1599 15.5935 4.46592 15.912C4.77193 16.2306 5.19164 16.415 5.63326 16.425H18.3673C18.8089 16.415 19.2286 16.2306 19.5346 15.912C19.8406 15.5935 20.008 15.1667 20.0003 14.725V14.183C20.0055 13.5369 19.8357 12.9014 19.5087 12.3442C19.1817 11.7869 18.7098 11.3286 18.1433 11.018ZM18.8573 14.729C18.8608 14.8626 18.8111 14.9922 18.7193 15.0892C18.6275 15.1863 18.5009 15.2431 18.3673 15.247H5.63326C5.49966 15.2431 5.37307 15.1863 5.28122 15.0892C5.18937 14.9922 5.13976 14.8626 5.14326 14.729V14.187C5.1392 13.7549 5.25248 13.3297 5.47103 12.9569C5.68958 12.5841 6.00521 12.2776 6.38426 12.07C8.1026 11.1027 10.0293 10.5651 12.0003 10.503C13.9709 10.5638 15.8976 11.1001 17.6163 12.066C17.9953 12.2735 18.3109 12.5801 18.5295 12.9529C18.748 13.3257 18.8613 13.7509 18.8573 14.183V14.729Z" fill="#004BA1"/>
</svg>
