<svg width="24" height="24" viewBox="0 0 24 24" fill="none" xmlns="http://www.w3.org/2000/svg">
<path d="M22.7333 9.48207L21.0512 9.20007C20.8771 8.63555 20.6508 8.08852 20.3754 7.56607L21.3637 6.17307C21.5679 5.88761 21.6641 5.53861 21.6348 5.18861C21.6055 4.83862 21.4528 4.5105 21.2039 4.26307L19.7145 2.76807C19.5776 2.62965 19.4146 2.51983 19.235 2.44499C19.0554 2.37014 18.8628 2.33176 18.6683 2.33207C18.3611 2.33128 18.0617 2.4279 17.8127 2.60807L16.4211 3.60007C15.8811 3.31212 15.3144 3.07768 14.729 2.90007L14.4484 1.23607C14.3905 0.890175 14.2119 0.576098 13.9445 0.349756C13.677 0.123414 13.3381 -0.000503419 12.9879 6.61873e-05H10.8815C10.5306 -0.000860565 10.1908 0.123265 9.92287 0.350252C9.65493 0.577238 9.47633 0.892285 9.41899 1.23907L9.12849 2.93907C8.56582 3.11569 8.02127 3.34574 7.50226 3.62607L6.1266 2.63807C5.8414 2.43404 5.49313 2.33812 5.14389 2.36742C4.79466 2.39673 4.46717 2.54935 4.21984 2.79807L2.72239 4.29207C2.47463 4.54013 2.32265 4.8681 2.2934 5.21777C2.26416 5.56744 2.35956 5.91617 2.56266 6.20207L3.56096 7.61107C3.2874 8.13526 3.06443 8.68441 2.89509 9.25107L1.23392 9.53207C0.887766 9.59022 0.573557 9.76984 0.347495 10.0388C0.121433 10.3077 -0.00173587 10.6485 1.84854e-05 11.0001V13.1111C0.000473936 13.4614 0.124892 13.8002 0.351167 14.0673C0.577442 14.3345 0.890923 14.5126 1.23592 14.5701L2.93303 14.8611C3.10935 15.4247 3.339 15.9702 3.61886 16.4901L2.63254 17.8641C2.42827 18.1495 2.33216 18.4985 2.36143 18.8485C2.39069 19.1985 2.54343 19.5266 2.79227 19.7741L4.29272 21.2681C4.42962 21.4065 4.59259 21.5163 4.77218 21.5911C4.95178 21.666 5.14442 21.7044 5.33894 21.7041C5.64605 21.7049 5.94554 21.6082 6.19448 21.4281L7.60109 20.4281C8.10748 20.6927 8.63674 20.911 9.1824 21.0801L9.46292 22.7651C9.521 23.1104 9.69938 23.424 9.9664 23.6501C10.2334 23.8762 10.5718 24.0002 10.9214 24.0001H13.0338C13.3844 24.0008 13.7239 23.8767 13.9916 23.6499C14.2593 23.4232 14.4378 23.1085 14.4954 22.7621L14.7809 21.0771C15.3444 20.9026 15.8905 20.676 16.4121 20.4001L17.7987 21.3931C18.0495 21.5733 18.3506 21.6699 18.6593 21.6691C18.8538 21.6694 19.0464 21.631 19.226 21.5561C19.4056 21.4813 19.5686 21.3715 19.7055 21.2331L21.197 19.7391C21.4447 19.491 21.5967 19.163 21.6259 18.8134C21.6552 18.4637 21.5598 18.115 21.3567 17.8291L20.3654 16.4351C20.6412 15.9128 20.8675 15.3657 21.0412 14.8011L22.7234 14.5201C23.0692 14.4624 23.3833 14.2836 23.6097 14.0154C23.8361 13.7473 23.96 13.4073 23.9593 13.0561V10.9461C23.964 10.5954 23.8429 10.2546 23.6179 9.98589C23.3928 9.71717 23.0789 9.53837 22.7333 9.48207ZM22.6185 13.0571C22.6189 13.0883 22.608 13.1187 22.5878 13.1426C22.5677 13.1665 22.5396 13.1823 22.5087 13.1871L20.4063 13.5381C20.2775 13.5598 20.1578 13.6187 20.0619 13.7075C19.966 13.7963 19.898 13.9112 19.8662 14.0381C19.677 14.7759 19.3839 15.483 18.9957 16.1381C18.9291 16.2507 18.8966 16.3802 18.9019 16.511C18.9072 16.6418 18.9502 16.7682 19.0257 16.8751L20.2615 18.6201C20.2786 18.6459 20.2864 18.6768 20.2837 18.7077C20.281 18.7386 20.2679 18.7676 20.2466 18.7901L18.7551 20.2841C18.7424 20.2977 18.7269 20.3083 18.7096 20.3152C18.6924 20.3221 18.6738 20.3251 18.6553 20.3241C18.6283 20.3242 18.6019 20.3154 18.5804 20.2991L16.8434 19.0611C16.7368 18.9853 16.6105 18.9422 16.4799 18.9369C16.3493 18.9316 16.22 18.9643 16.1076 19.0311C15.4537 19.4199 14.7478 19.7135 14.0112 19.9031C13.884 19.9339 13.7688 20.0018 13.68 20.098C13.5912 20.1943 13.5327 20.3147 13.512 20.4441L13.1566 22.5501C13.1518 22.581 13.1361 22.6091 13.1122 22.6293C13.0884 22.6495 13.0581 22.6604 13.0269 22.6601H10.9264C10.8952 22.6604 10.8649 22.6495 10.8411 22.6293C10.8172 22.6091 10.8015 22.581 10.7966 22.5501L10.4462 20.4441C10.4245 20.315 10.3658 20.1952 10.2771 20.0991C10.1885 20.003 10.0738 19.9349 9.9471 19.9031C9.22848 19.7154 8.53818 19.4322 7.89459 19.0611C7.79074 19.0022 7.67348 18.9712 7.55417 18.9711C7.4141 18.9701 7.27737 19.0139 7.16383 19.0961L5.41581 20.3411C5.39355 20.356 5.36768 20.3646 5.34093 20.3661C5.32244 20.3667 5.30401 20.3634 5.28683 20.3566C5.26965 20.3497 5.25407 20.3393 5.2411 20.3261L3.75363 18.8321C3.73214 18.8097 3.71894 18.7806 3.71621 18.7497C3.71349 18.7188 3.72141 18.6879 3.73866 18.6621L4.96956 16.9321C5.04512 16.8243 5.08813 16.6971 5.09344 16.5655C5.09875 16.4339 5.06614 16.3036 4.99951 16.1901C4.60691 15.536 4.31037 14.8288 4.11901 14.0901C4.08567 13.964 4.01717 13.85 3.92153 13.7614C3.82589 13.6729 3.70706 13.6134 3.57893 13.5901L1.46153 13.2291C1.43068 13.2243 1.40259 13.2085 1.38242 13.1846C1.36225 13.1607 1.35135 13.1303 1.35172 13.0991V11.0001C1.35135 10.9688 1.36225 10.9384 1.38242 10.9145C1.40259 10.8907 1.43068 10.8749 1.46153 10.8701L3.54898 10.5191C3.67844 10.4976 3.79889 10.4389 3.89566 10.3502C3.99244 10.2614 4.06136 10.1464 4.09405 10.0191C4.27792 9.27992 4.56599 8.57079 4.9496 7.91307C5.0155 7.80088 5.04729 7.67187 5.04109 7.54185C5.03488 7.41183 4.99094 7.28645 4.91466 7.18107L3.66878 5.42107C3.65171 5.39521 3.64389 5.36432 3.64661 5.33345C3.64933 5.30257 3.66242 5.27353 3.68375 5.25107L5.17521 3.75607C5.18791 3.74248 5.20344 3.73185 5.22069 3.72494C5.23794 3.71803 5.25649 3.715 5.27504 3.71607C5.30207 3.71592 5.32839 3.72471 5.34992 3.74107L7.07698 4.97407C7.18442 5.04813 7.31073 5.08992 7.44107 5.09452C7.57141 5.09913 7.70035 5.06636 7.81273 5.00007C8.46565 4.60679 9.17171 4.30975 9.90916 4.11807C10.0351 4.08467 10.1489 4.01605 10.2372 3.92025C10.3256 3.82445 10.385 3.70541 10.4083 3.57707L10.7687 1.45607C10.7735 1.42516 10.7893 1.39702 10.8131 1.37682C10.8369 1.35661 10.8673 1.34569 10.8985 1.34607H12.9979C13.0291 1.34569 13.0594 1.35661 13.0833 1.37682C13.1071 1.39702 13.1229 1.42516 13.1277 1.45607L13.4771 3.55107C13.498 3.68129 13.5563 3.80259 13.645 3.9001C13.7336 3.99762 13.8487 4.06711 13.9762 4.10007C14.7305 4.28961 15.4536 4.58664 16.1236 4.98207C16.236 5.04874 16.3653 5.08138 16.4959 5.07606C16.6264 5.07074 16.7527 5.02767 16.8593 4.95207L18.5864 3.70907C18.6087 3.69413 18.6345 3.68549 18.6613 3.68407C18.6798 3.68345 18.6982 3.68669 18.7154 3.69358C18.7326 3.70046 18.7481 3.71084 18.7611 3.72407L20.2526 5.21807C20.2741 5.24043 20.2873 5.2695 20.29 5.30042C20.2927 5.33135 20.2848 5.36227 20.2675 5.38807L19.0316 7.12807C18.956 7.23486 18.913 7.36132 18.9077 7.49212C18.9024 7.62293 18.935 7.75247 19.0017 7.86507C19.3899 8.52014 19.683 9.22723 19.8722 9.96507C19.903 10.0924 19.9707 10.2079 20.0668 10.2968C20.1629 10.3858 20.2831 10.4443 20.4123 10.4651L22.5147 10.8211C22.5456 10.8259 22.5737 10.8417 22.5938 10.8655C22.614 10.8894 22.6249 10.9198 22.6245 10.9511V13.0621L22.6185 13.0571Z" fill="#8A9EAD"/>
<path d="M11.9816 7.00006C10.9591 7.00006 9.95945 7.3038 9.10921 7.87288C8.25898 8.44195 7.5963 9.25081 7.20498 10.1971C6.81366 11.1435 6.71127 12.1848 6.91076 13.1894C7.11025 14.1941 7.60268 15.1169 8.32574 15.8412C9.04881 16.5655 9.97005 17.0587 10.973 17.2585C11.9759 17.4584 13.0154 17.3558 13.9602 16.9638C14.9049 16.5719 15.7124 15.908 16.2805 15.0564C16.8486 14.2047 17.1518 13.2034 17.1518 12.1791C17.151 10.8057 16.6061 9.48892 15.6366 8.51784C14.6672 7.54676 13.3526 7.00086 11.9816 7.00006ZM11.9816 16.0001C11.2264 16.0001 10.4881 15.7757 9.86018 15.3554C9.23223 14.9351 8.7428 14.3378 8.45379 13.6388C8.16478 12.9399 8.08916 12.1708 8.23649 11.4288C8.38383 10.6869 8.7475 10.0053 9.28153 9.47038C9.81556 8.93545 10.496 8.57114 11.2367 8.42355C11.9774 8.27596 12.7452 8.35171 13.4429 8.64122C14.1406 8.93073 14.737 9.42099 15.1566 10.05C15.5762 10.679 15.8001 11.4186 15.8001 12.1751C15.8007 13.1901 15.3987 14.1639 14.6826 14.8821C13.9665 15.6003 12.995 16.0043 11.9816 16.0051V16.0001Z" fill="#8A9EAD"/>
</svg>
