<svg width="22" height="22" viewBox="0 0 22 22" fill="none" xmlns="http://www.w3.org/2000/svg">
<path d="M10.9981 20C9.21802 20 7.47796 19.4722 5.99792 18.4832C4.51788 17.4943 3.36432 16.0887 2.68314 14.4442C2.00195 12.7996 1.82372 10.99 2.17098 9.24419C2.51825 7.49836 3.37542 5.89472 4.63409 4.63604C5.89276 3.37737 7.49641 2.5202 9.24224 2.17294C10.9881 1.82567 12.7977 2.0039 14.4422 2.68509C16.0867 3.36628 17.4923 4.51983 18.4813 5.99987C19.4702 7.47991 19.9981 9.21997 19.9981 11C19.9954 13.3861 19.0463 15.6738 17.3591 17.361C15.6718 19.0483 13.3842 19.9974 10.9981 20ZM10.9981 3.35C9.48502 3.35 8.00598 3.79867 6.74794 4.63926C5.4899 5.47985 4.50938 6.67462 3.93037 8.07248C3.35136 9.47033 3.19987 11.0085 3.49504 12.4924C3.79022 13.9764 4.51881 15.3395 5.58868 16.4094C6.65856 17.4792 8.02166 18.2078 9.50561 18.503C10.9896 18.7982 12.5277 18.6467 13.9256 18.0677C15.3234 17.4887 16.5182 16.5082 17.3588 15.2501C18.1994 13.9921 18.6481 12.513 18.6481 11C18.6457 8.97183 17.8389 7.02741 16.4048 5.59327C14.9706 4.15913 13.0262 3.35239 10.9981 3.35Z" fill="white"/>
<path d="M10.998 5C10.7991 5 10.6084 4.92098 10.4677 4.78033C10.3271 4.63968 10.248 4.44891 10.248 4.25V0.75C10.248 0.551088 10.3271 0.360322 10.4677 0.21967C10.6084 0.0790176 10.7991 0 10.998 0C11.197 0 11.3877 0.0790176 11.5284 0.21967C11.669 0.360322 11.748 0.551088 11.748 0.75V4.25C11.748 4.44891 11.669 4.63968 11.5284 4.78033C11.3877 4.92098 11.197 5 10.998 5Z" fill="white"/>
<path d="M21.248 11.75H17.748C17.5491 11.75 17.3584 11.671 17.2177 11.5303C17.0771 11.3897 16.998 11.1989 16.998 11C16.998 10.8011 17.0771 10.6103 17.2177 10.4697C17.3584 10.329 17.5491 10.25 17.748 10.25H21.248C21.447 10.25 21.6377 10.329 21.7784 10.4697C21.919 10.6103 21.998 10.8011 21.998 11C21.998 11.1989 21.919 11.3897 21.7784 11.5303C21.6377 11.671 21.447 11.75 21.248 11.75Z" fill="white"/>
<path d="M10.998 22C10.7991 22 10.6084 21.921 10.4677 21.7803C10.3271 21.6397 10.248 21.4489 10.248 21.25V17.75C10.248 17.5511 10.3271 17.3603 10.4677 17.2197C10.6084 17.079 10.7991 17 10.998 17C11.197 17 11.3877 17.079 11.5284 17.2197C11.669 17.3603 11.748 17.5511 11.748 17.75V21.25C11.748 21.4489 11.669 21.6397 11.5284 21.7803C11.3877 21.921 11.197 22 10.998 22Z" fill="white"/>
<path d="M4.24805 11.75H0.748047C0.549134 11.75 0.358369 11.671 0.217717 11.5303C0.0770645 11.3897 -0.00195312 11.1989 -0.00195312 11C-0.00195312 10.8011 0.0770645 10.6103 0.217717 10.4697C0.358369 10.329 0.549134 10.25 0.748047 10.25H4.24805C4.44696 10.25 4.63772 10.329 4.77838 10.4697C4.91903 10.6103 4.99805 10.8011 4.99805 11C4.99805 11.1989 4.91903 11.3897 4.77838 11.5303C4.63772 11.671 4.44696 11.75 4.24805 11.75Z" fill="white"/>
<path d="M10.9986 14.9465C10.219 14.9465 9.45684 14.7153 8.80858 14.2822C8.16033 13.849 7.65507 13.2333 7.35671 12.513C7.05835 11.7927 6.98028 11.0001 7.13239 10.2355C7.28449 9.47078 7.65993 8.76839 8.21123 8.21709C8.76253 7.66579 9.46492 7.29035 10.2296 7.13825C10.9943 6.98614 11.7869 7.06421 12.5072 7.36257C13.2275 7.66093 13.8431 8.16619 14.2763 8.81444C14.7094 9.4627 14.9406 10.2248 14.9406 11.0045C14.9393 12.0496 14.5236 13.0515 13.7846 13.7905C13.0456 14.5294 12.0437 14.9452 10.9986 14.9465Z" fill="white"/>
</svg>
