<svg width="24" height="16" viewBox="0 0 24 16" fill="none" xmlns="http://www.w3.org/2000/svg">
<path d="M15.388 11.6214C15.906 11.6214 16.326 11.2014 16.326 10.6834C16.326 10.1653 15.906 9.74539 15.388 9.74539C14.87 9.74539 14.45 10.1653 14.45 10.6834C14.45 11.2014 14.87 11.6214 15.388 11.6214Z" fill="#004BA1"/>
<path d="M18.375 14.1144C18.5408 14.1144 18.6997 14.0486 18.817 13.9314C18.9342 13.8141 19 13.6552 19 13.4894V8.3644C19 7.70135 18.7366 7.06547 18.2678 6.59663C17.7989 6.12779 17.163 5.8644 16.5 5.8644H15.749V3.6644C15.7264 2.68483 15.3214 1.753 14.6206 1.06821C13.9198 0.383409 12.9788 0 11.999 0C11.0192 0 10.0782 0.383409 9.37744 1.06821C8.67665 1.753 8.27162 2.68483 8.24899 3.6644V5.8644H7.5C6.83696 5.8644 6.20108 6.12779 5.73224 6.59663C5.2634 7.06547 5 7.70135 5 8.3644V13.4894C5 14.1524 5.2634 14.7883 5.73224 15.2572C6.20108 15.726 6.83696 15.9894 7.5 15.9894H16.5C17.163 15.9894 17.7989 15.726 18.2678 15.2572C18.7366 14.7883 19 14.1524 19 13.4894C19 13.3236 18.9342 13.1646 18.817 13.0474C18.6997 12.9302 18.5408 12.8644 18.375 12.8644C18.2092 12.8644 18.0503 12.9302 17.933 13.0474C17.8158 13.1646 17.75 13.3236 17.75 13.4894C17.7497 13.8208 17.618 14.1386 17.3836 14.373C17.1492 14.6074 16.8314 14.7391 16.5 14.7394H7.5C7.16856 14.7391 6.85077 14.6074 6.61641 14.373C6.38205 14.1386 6.25026 13.8208 6.25 13.4894V8.3644C6.25026 8.03296 6.38205 7.71517 6.61641 7.4808C6.85077 7.24644 7.16856 7.11466 7.5 7.1144H16.5C16.8314 7.11466 17.1492 7.24644 17.3836 7.4808C17.618 7.71517 17.7497 8.03296 17.75 8.3644V13.4894C17.75 13.6552 17.8158 13.8141 17.933 13.9314C18.0503 14.0486 18.2092 14.1144 18.375 14.1144ZM14.5 5.8644H9.5V3.6644C9.5 3.00136 9.7634 2.36546 10.2322 1.89662C10.7011 1.42778 11.337 1.1644 12 1.1644C12.663 1.1644 13.2989 1.42778 13.7678 1.89662C14.2366 2.36546 14.5 3.00136 14.5 3.6644V5.8644Z" fill="#004BA1"/>
<path d="M10.901 11.6214C11.419 11.6214 11.839 11.2014 11.839 10.6834C11.839 10.1653 11.419 9.74539 10.901 9.74539C10.383 9.74539 9.963 10.1653 9.963 10.6834C9.963 11.2014 10.383 11.6214 10.901 11.6214Z" fill="#004BA1"/>
<path d="M8.671 11.6194C9.18849 11.6194 9.608 11.1999 9.608 10.6824C9.608 10.1649 9.18849 9.74539 8.671 9.74539C8.15351 9.74539 7.734 10.1649 7.734 10.6824C7.734 11.1999 8.15351 11.6194 8.671 11.6194Z" fill="#004BA1"/>
<path d="M13.13 11.6214C13.648 11.6214 14.068 11.2014 14.068 10.6834C14.068 10.1653 13.648 9.74539 13.13 9.74539C12.612 9.74539 12.192 10.1653 12.192 10.6834C12.192 11.2014 12.612 11.6214 13.13 11.6214Z" fill="#004BA1"/>
</svg>
