<svg width="25" height="26" viewBox="0 0 25 26" fill="none" xmlns="http://www.w3.org/2000/svg">
<path d="M21.3347 9.70038V8.72238C21.3633 6.45058 20.5294 4.25272 19.0017 2.57338C18.2395 1.75197 17.3147 1.09887 16.2862 0.655828C15.2577 0.212788 14.1483 -0.0104525 13.0289 0.00037588H12.2212C11.1018 -0.0104525 9.99235 0.212788 8.96389 0.655828C7.93544 1.09887 7.01057 1.75197 6.2484 2.57338C4.72073 4.25272 3.88683 6.45058 3.91537 8.72238V9.70038C3.02784 9.76111 2.19632 10.1567 1.58847 10.8073C0.980619 11.458 0.641659 12.3153 0.639938 13.2064V14.7394C0.641259 15.6701 1.01096 16.5624 1.668 17.2206C2.32503 17.8787 3.21579 18.2491 4.14497 18.2504H6.11962C6.2897 18.2498 6.45266 18.1819 6.57293 18.0615C6.6932 17.941 6.761 17.7777 6.76152 17.6074V10.3354C6.761 10.165 6.6932 10.0018 6.57293 9.88129C6.45266 9.76082 6.2897 9.6929 6.11962 9.69238H5.19918V8.72238C5.19918 4.48238 8.21705 1.28738 12.2152 1.28738H13.0229C17.0261 1.28738 20.0389 4.48238 20.0389 8.72238V9.69238H19.1185C18.9484 9.6929 18.7855 9.76082 18.6652 9.88129C18.5449 10.0018 18.4771 10.165 18.4766 10.3354V17.6004C18.4771 17.7707 18.5449 17.934 18.6652 18.0545C18.7855 18.1749 18.9484 18.2428 19.1185 18.2434H20.017C19.7544 21.5994 17.4483 22.3764 16.3782 22.5534C16.2292 22.1013 15.9417 21.7078 15.5565 21.429C15.1713 21.1502 14.7081 21.0002 14.2328 21.0004H12.6275C12.0375 21.0128 11.4759 21.2563 11.063 21.6787C10.6501 22.1011 10.4188 22.6687 10.4188 23.2599C10.4188 23.851 10.6501 24.4187 11.063 24.841C11.4759 25.2634 12.0375 25.5069 12.6275 25.5194H14.2388C14.7325 25.5183 15.2122 25.3552 15.6045 25.055C15.9968 24.7549 16.2802 24.3342 16.4111 23.8574C17.178 23.7504 17.9173 23.4975 18.5894 23.1124C19.4224 22.6038 20.1102 21.8886 20.5865 21.0358C21.0627 20.183 21.3111 19.2215 21.3078 18.2444C22.1992 18.1897 23.0362 17.7965 23.6483 17.1451C24.2604 16.4937 24.6016 15.633 24.6022 14.7384V13.2004C24.604 12.3101 24.2672 11.4526 23.6602 10.8024C23.0531 10.1522 22.2216 9.75811 21.3347 9.70038ZM5.48869 16.9614H4.15596C3.56693 16.9611 3.00211 16.7266 2.58561 16.3094C2.16911 15.8922 1.935 15.3264 1.93474 14.7364V13.2004C1.935 12.6104 2.16911 12.0446 2.58561 11.6274C3.00211 11.2101 3.56693 10.9756 4.15596 10.9754H5.48869V16.9614ZM14.2388 24.2304H12.6275C12.3706 24.2304 12.1242 24.1281 11.9425 23.9461C11.7608 23.7641 11.6587 23.5173 11.6587 23.2599C11.6587 23.0025 11.7608 22.7556 11.9425 22.5736C12.1242 22.3916 12.3706 22.2894 12.6275 22.2894H14.2388C14.366 22.2894 14.492 22.3145 14.6096 22.3633C14.7271 22.412 14.8339 22.4835 14.9239 22.5736C15.0138 22.6637 15.0852 22.7707 15.1339 22.8885C15.1826 23.0062 15.2077 23.1324 15.2077 23.2599C15.2077 23.3873 15.1826 23.5135 15.1339 23.6313C15.0852 23.749 15.0138 23.856 14.9239 23.9461C14.8339 24.0362 14.7271 24.1077 14.6096 24.1565C14.492 24.2053 14.366 24.2304 14.2388 24.2304ZM23.3233 14.7364C23.3231 15.3264 23.089 15.8922 22.6725 16.3094C22.256 16.7266 21.6911 16.9611 21.1021 16.9614H19.7664V10.9794H21.0991C21.6875 10.9796 22.2517 11.2136 22.6681 11.6299C23.0845 12.0463 23.319 12.611 23.3204 13.2004L23.3233 14.7364Z" fill="#8A9EAD"/>
</svg>
