<svg width="26" height="17" viewBox="0 0 26 17" fill="none" xmlns="http://www.w3.org/2000/svg">
<path d="M22.246 7.86095C22.7331 7.51895 23.0985 7.03063 23.2893 6.46687C23.48 5.9031 23.4862 5.29321 23.3069 4.72571C23.1275 4.15821 22.772 3.66261 22.2919 3.31084C21.8118 2.95907 21.2322 2.76942 20.637 2.76942C20.0418 2.76942 19.4621 2.95907 18.9821 3.31084C18.502 3.66261 18.1465 4.15821 17.9671 4.72571C17.7878 5.29321 17.794 5.9031 17.9847 6.46687C18.1755 7.03063 18.5409 7.51895 19.028 7.86095C18.4161 8.07133 17.8524 8.4018 17.37 8.83295C16.7073 8.26713 15.9343 7.84521 15.1 7.59396C15.7642 7.1926 16.2788 6.58479 16.565 5.86343C16.8512 5.14207 16.8934 4.34683 16.6851 3.59924C16.4768 2.85165 16.0294 2.19284 15.4113 1.72347C14.7933 1.2541 14.0386 1 13.2625 1C12.4864 1 11.7317 1.2541 11.1136 1.72347C10.4956 2.19284 10.0482 2.85165 9.8399 3.59924C9.63157 4.34683 9.67375 5.14207 9.95998 5.86343C10.2462 6.58479 10.7608 7.1926 11.425 7.59396C10.5991 7.8448 9.83311 8.26165 9.17399 8.81895C8.69521 8.39773 8.1388 8.074 7.53599 7.86595C8.02308 7.52394 8.38852 7.03563 8.57927 6.47186C8.77003 5.9081 8.77619 5.29821 8.59685 4.73071C8.41751 4.1632 8.06201 3.66761 7.58192 3.31584C7.10184 2.96407 6.52216 2.77442 5.92699 2.77442C5.33183 2.77442 4.75214 2.96407 4.27206 3.31584C3.79198 3.66761 3.43647 4.1632 3.25713 4.73071C3.07779 5.29821 3.08395 5.9081 3.27471 6.47186C3.46547 7.03563 3.83091 7.52394 4.31799 7.86595C3.34974 8.19987 2.50974 8.82746 1.915 9.66131C1.32027 10.4952 1.00041 11.4937 0.999992 12.518V12.839C1.00044 12.8438 1.00258 12.8484 1.00606 12.8519C1.00953 12.8554 1.0141 12.8575 1.01899 12.858H6.96399C6.92911 13.1302 6.9114 13.4044 6.91099 13.679V14.01C6.91086 14.3498 6.97776 14.6864 7.10786 15.0004C7.23796 15.3144 7.4287 15.5997 7.66918 15.8399C7.90966 16.0801 8.19514 16.2705 8.5093 16.4002C8.82345 16.53 9.1601 16.5965 9.49999 16.596H17.034C17.3736 16.5961 17.71 16.5293 18.0238 16.3994C18.3376 16.2695 18.6227 16.079 18.8629 15.8388C19.103 15.5987 19.2935 15.3135 19.4234 14.9997C19.5533 14.6859 19.6201 14.3496 19.62 14.01V13.679C19.6196 13.4044 19.6019 13.1302 19.567 12.858H25.551C25.5559 12.8575 25.5605 12.8554 25.5639 12.8519C25.5674 12.8484 25.5695 12.8438 25.57 12.839V12.518C25.5674 11.4928 25.246 10.4939 24.6505 9.6595C24.0549 8.82511 23.2146 8.19658 22.246 7.86095ZM18.61 5.56096C18.6101 5.16173 18.728 4.77141 18.9491 4.43897C19.1701 4.10653 19.4844 3.84677 19.8526 3.69227C20.2207 3.53777 20.6262 3.49542 21.0183 3.57052C21.4104 3.64562 21.7716 3.83484 22.0566 4.11443C22.3415 4.39403 22.5376 4.75155 22.6202 5.14214C22.7027 5.53274 22.6681 5.93902 22.5207 6.31001C22.3732 6.68101 22.1195 7.0002 21.7913 7.22755C21.4631 7.45489 21.0751 7.58027 20.676 7.58795H20.6C20.0688 7.57903 19.5623 7.36158 19.19 6.98254C18.8177 6.60349 18.6094 6.09226 18.61 5.56096ZM10.474 4.54796C10.4741 4.006 10.6329 3.47595 10.9309 3.02322C11.2288 2.57049 11.6527 2.21489 12.1504 2.00034C12.6481 1.78579 13.1977 1.72167 13.7314 1.81589C14.2651 1.9101 14.7596 2.15853 15.1537 2.53052C15.5478 2.9025 15.8244 3.38176 15.9493 3.90913C16.0742 4.4365 16.0419 4.9889 15.8565 5.49815C15.6711 6.00739 15.3406 6.45118 14.9058 6.77476C14.471 7.09833 13.951 7.28751 13.41 7.31895H13.089C12.3821 7.27717 11.7179 6.96712 11.2319 6.45213C10.7459 5.93714 10.4748 5.25606 10.474 4.54796ZM3.88199 5.56196C3.88207 5.16273 4.00003 4.77241 4.22108 4.43997C4.44213 4.10753 4.75643 3.84777 5.12455 3.69327C5.49267 3.53877 5.89822 3.49641 6.29032 3.57152C6.68241 3.64662 7.0436 3.83584 7.32858 4.11543C7.61355 4.39503 7.80961 4.75255 7.89217 5.14314C7.97473 5.53374 7.94012 5.94002 7.79266 6.31101C7.6452 6.68201 7.39148 7.0012 7.06331 7.22855C6.73514 7.45589 6.34714 7.58128 5.94799 7.58896H5.86999C5.33919 7.57874 4.83357 7.36068 4.46183 6.98164C4.09009 6.60261 3.88189 6.09286 3.88199 5.56196ZM7.09999 12.076H1.78699C1.89583 11.0634 2.37289 10.1262 3.1275 9.44238C3.88212 8.75856 4.86168 8.37584 5.87999 8.36696H5.93799C6.90992 8.37239 7.84847 8.72209 8.58699 9.35396C7.87503 10.1252 7.36428 11.0601 7.09999 12.076ZM18.829 14.011C18.8282 14.4902 18.6375 14.9496 18.2986 15.2885C17.9597 15.6274 17.5003 15.8182 17.021 15.819H9.48699C9.00773 15.8182 8.54831 15.6274 8.20942 15.2885C7.87053 14.9496 7.67979 14.4902 7.67899 14.011V13.68C7.68062 12.2302 8.24603 10.8379 9.25565 9.79751C10.2653 8.7571 11.6399 8.15013 13.089 8.10496C13.142 8.10496 13.201 8.10496 13.254 8.10496C13.307 8.10496 13.366 8.10496 13.419 8.10496C14.868 8.15013 16.2427 8.7571 17.2523 9.79751C18.262 10.8379 18.8274 12.2302 18.829 13.68V14.011ZM19.407 12.076C19.1441 11.0691 18.6383 10.142 17.934 9.37595C18.677 8.73341 19.6247 8.37674 20.607 8.36996H20.665C21.6833 8.37884 22.6629 8.76156 23.4175 9.44537C24.1721 10.1292 24.6492 11.0664 24.758 12.079L19.407 12.076Z" fill="#004BA1" stroke="#004BA1" stroke-width="0.3"/>
</svg>
