<svg width="22" height="22" viewBox="0 0 22 22" fill="none" xmlns="http://www.w3.org/2000/svg">
<path d="M20.874 8.692L19.33 8.43C19.1704 7.91181 18.9629 7.40964 18.71 6.93L19.62 5.657C19.8075 5.39527 19.8958 5.0753 19.8688 4.75444C19.8419 4.43359 19.7016 4.13281 19.473 3.906L18.1 2.538C17.9743 2.411 17.8246 2.31024 17.6596 2.24158C17.4947 2.17291 17.3177 2.1377 17.139 2.138C16.8569 2.13716 16.5817 2.22573 16.353 2.391L15.075 3.301C14.5794 3.03802 14.0592 2.824 13.522 2.662L13.265 1.136C13.2124 0.818775 13.049 0.530492 12.8038 0.322468C12.5586 0.114444 12.2476 0.000175068 11.926 1.89627e-06H9.99101C9.66894 -0.000536079 9.35717 0.11341 9.11135 0.321497C8.86552 0.529584 8.70166 0.818266 8.64901 1.136L8.38301 2.7C7.86607 2.86192 7.3658 3.07288 6.88901 3.33L5.62501 2.42C5.36313 2.23286 5.04325 2.14489 4.72251 2.17182C4.40176 2.19875 4.10102 2.33881 3.87401 2.567L2.50001 3.935C2.27236 4.16233 2.13267 4.46299 2.10576 4.78357C2.07885 5.10416 2.16645 5.4239 2.35301 5.686L3.27201 6.977C3.02116 7.45646 2.81657 7.95873 2.66101 8.477L1.13501 8.734C0.816947 8.78695 0.528101 8.95134 0.320152 9.19776C0.112203 9.44419 -0.00127911 9.75657 1.08778e-05 10.079V12.014C-0.000566215 12.3359 0.113239 12.6476 0.321125 12.8934C0.529011 13.1392 0.817458 13.3031 1.13501 13.356L2.69801 13.623C2.85993 14.1399 3.07088 14.6402 3.32801 15.117L2.42301 16.376C2.23547 16.6377 2.14727 16.9577 2.17421 17.2786C2.20114 17.5994 2.34146 17.9002 2.57001 18.127L3.94001 19.497C4.06572 19.624 4.2154 19.7248 4.38038 19.7934C4.54535 19.8621 4.72232 19.8973 4.90101 19.897C5.18316 19.8978 5.45833 19.8093 5.68701 19.644L6.97801 18.725C7.44291 18.9684 7.92889 19.1692 8.43001 19.325L8.68701 20.869C8.7407 21.1857 8.90487 21.473 9.15038 21.6801C9.39589 21.8872 9.70684 22.0005 10.028 22H11.967C12.2889 22.0006 12.6006 21.8868 12.8464 21.6789C13.0922 21.471 13.2561 21.1826 13.309 20.865L13.571 19.321C14.0892 19.1614 14.5914 18.9539 15.071 18.701L16.344 19.611C16.5742 19.7762 16.8506 19.8647 17.134 19.864C17.3127 19.8643 17.4897 19.8291 17.6546 19.7604C17.8196 19.6918 17.9693 19.591 18.095 19.464L19.465 18.094C19.6927 17.8667 19.8323 17.566 19.8593 17.2454C19.8862 16.9248 19.7986 16.6051 19.612 16.343L18.702 15.065C18.9552 14.5855 19.1628 14.0833 19.322 13.565L20.866 13.308C21.183 13.255 21.471 13.0912 21.6786 12.8459C21.8863 12.6005 22.0002 12.2894 22 11.968V10.034C22.0044 9.71247 21.8931 9.40007 21.6864 9.15373C21.4797 8.90739 21.1914 8.74353 20.874 8.692ZM20.768 11.969C20.7684 11.9975 20.7585 12.0252 20.7401 12.0471C20.7218 12.0689 20.6962 12.0834 20.668 12.088L18.738 12.41C18.6194 12.429 18.509 12.4821 18.4201 12.5629C18.3313 12.6437 18.268 12.7487 18.238 12.865C18.0642 13.5417 17.7948 14.1902 17.438 14.791C17.3768 14.8943 17.3469 15.0132 17.3519 15.1332C17.3568 15.2531 17.3965 15.3691 17.466 15.467L18.601 17.067C18.6168 17.0907 18.624 17.1191 18.6215 17.1475C18.6189 17.1758 18.6068 17.2025 18.587 17.223L17.217 18.593C17.2059 18.6049 17.1924 18.6143 17.1774 18.6207C17.1624 18.6271 17.1463 18.6302 17.13 18.63C17.1051 18.6301 17.0808 18.6221 17.061 18.607L15.466 17.472C15.3681 17.4025 15.2521 17.3628 15.1322 17.3579C15.0122 17.3529 14.8933 17.3828 14.79 17.444C14.1893 17.8008 13.5407 18.0701 12.864 18.244C12.7473 18.2732 12.6419 18.3362 12.5609 18.4252C12.48 18.5142 12.4271 18.6251 12.409 18.744L12.083 20.674C12.0785 20.7022 12.0639 20.7278 12.0421 20.7461C12.0203 20.7645 11.9925 20.7744 11.964 20.774H10.033C10.0045 20.7744 9.97677 20.7645 9.95493 20.7461C9.93308 20.7278 9.91856 20.7022 9.91401 20.674L9.59201 18.744C9.57305 18.6254 9.51991 18.515 9.43908 18.4261C9.35826 18.3373 9.25328 18.274 9.13701 18.244C8.47738 18.0719 7.84375 17.8122 7.25301 17.472C7.15759 17.4178 7.04976 17.3892 6.94001 17.389C6.81149 17.3883 6.6861 17.4286 6.58201 17.504L4.97301 18.646C4.9525 18.6597 4.92866 18.6677 4.90401 18.669C4.88779 18.6689 4.87175 18.6655 4.85681 18.6592C4.84188 18.6528 4.82836 18.6436 4.81701 18.632L3.44701 17.262C3.42725 17.2415 3.41509 17.2148 3.41255 17.1865C3.41 17.1581 3.41722 17.1297 3.43301 17.106L4.56401 15.52C4.63342 15.4213 4.67296 15.3047 4.67792 15.1841C4.68289 15.0635 4.65306 14.9441 4.59201 14.84C4.2317 14.2417 3.95924 13.5948 3.78301 12.919C3.75163 12.8034 3.68791 12.6992 3.59933 12.6186C3.51076 12.538 3.40102 12.4844 3.28301 12.464L1.33901 12.133C1.31085 12.1284 1.28525 12.1139 1.2669 12.0921C1.24854 12.0702 1.23865 12.0425 1.23901 12.014V10.079C1.23865 10.0505 1.24854 10.0228 1.2669 10.0009C1.28525 9.97908 1.31085 9.96455 1.33901 9.96L3.25501 9.638C3.37403 9.61819 3.4847 9.56414 3.5735 9.48244C3.66229 9.40075 3.72537 9.29496 3.75501 9.178C3.92402 8.5006 4.18868 7.85074 4.54101 7.248C4.60144 7.14514 4.6306 7.0269 4.62491 6.90774C4.61923 6.78857 4.57896 6.67365 4.50901 6.577L3.36901 4.969C3.35322 4.94529 3.346 4.91691 3.34855 4.88854C3.35109 4.86017 3.36325 4.83352 3.38301 4.813L4.75301 3.443C4.76414 3.43112 4.77763 3.42169 4.79261 3.41532C4.80759 3.40895 4.82373 3.40578 4.84001 3.406C4.86492 3.40585 4.88917 3.41394 4.90901 3.429L6.49401 4.56C6.59273 4.62941 6.70933 4.66895 6.8299 4.67391C6.95047 4.67888 7.06992 4.64906 7.17401 4.588C7.77227 4.22769 8.41922 3.95523 9.09501 3.779C9.21058 3.74762 9.31479 3.6839 9.39539 3.59533C9.47599 3.50675 9.52964 3.39701 9.55001 3.279L9.88101 1.335C9.88556 1.30684 9.90008 1.28124 9.92193 1.26289C9.94377 1.24453 9.97148 1.23464 10 1.235H11.935C11.9635 1.23464 11.9913 1.24453 12.0131 1.26289C12.0349 1.28124 12.0495 1.30684 12.054 1.335L12.376 3.251C12.3958 3.37002 12.4499 3.48069 12.5316 3.56949C12.6133 3.65828 12.7191 3.72136 12.836 3.751C13.5287 3.92489 14.1928 4.19733 14.808 4.56C14.9113 4.62119 15.0302 4.65112 15.1502 4.64615C15.2701 4.64118 15.3861 4.60153 15.484 4.532L17.069 3.4C17.0895 3.38626 17.1134 3.37831 17.138 3.377C17.1542 3.37713 17.1703 3.38046 17.1852 3.38681C17.2001 3.39316 17.2137 3.4024 17.225 3.414L18.595 4.784C18.6148 4.80452 18.6269 4.83117 18.6295 4.85954C18.632 4.88791 18.6248 4.9163 18.609 4.94L17.473 6.532C17.4035 6.62991 17.3638 6.74587 17.3589 6.86585C17.3539 6.98583 17.3838 7.10468 17.445 7.208C17.8018 7.80876 18.0712 8.45727 18.245 9.134C18.2742 9.25069 18.3373 9.35614 18.4262 9.4371C18.5152 9.51806 18.6261 9.57091 18.745 9.589L20.675 9.915C20.7032 9.91955 20.7288 9.93408 20.7471 9.95592C20.7655 9.97776 20.7754 10.0055 20.775 10.034V11.969H20.768Z" fill="#0050A0"/>
<path d="M11.0029 6.25C10.064 6.25 9.1462 6.52841 8.36556 7.05002C7.58492 7.57163 6.9765 8.313 6.61721 9.1804C6.25792 10.0478 6.16391 11.0023 6.34707 11.9231C6.53024 12.8439 6.98236 13.6898 7.64623 14.3536C8.31011 15.0175 9.15595 15.4696 10.0768 15.6528C10.9976 15.8359 11.9521 15.7419 12.8195 15.3827C13.6869 15.0234 14.4282 14.4149 14.9499 13.6343C15.4715 12.8537 15.7499 11.9359 15.7499 10.997C15.7491 9.73826 15.2487 8.5313 14.3586 7.64124C13.4686 6.75117 12.2616 6.25079 11.0029 6.25ZM11.0029 14.504C10.3092 14.504 9.63121 14.2983 9.05448 13.913C8.47776 13.5276 8.02825 12.9799 7.76281 12.3391C7.49738 11.6982 7.42792 10.9931 7.56324 10.3128C7.69856 9.63253 8.03257 9.00764 8.52304 8.51718C9.0135 8.02672 9.63838 7.69271 10.3187 7.55739C10.999 7.42207 11.7041 7.49152 12.3449 7.75696C12.9858 8.02239 13.5335 8.47189 13.9188 9.04861C14.3042 9.62534 14.5099 10.3034 14.5099 10.997C14.5096 11.9271 14.1401 12.8191 13.4825 13.4769C12.8249 14.1347 11.933 14.5045 11.0029 14.505V14.504Z" fill="#0050A0"/>
</svg>
