<svg width="20" height="20" viewBox="0 0 20 20" fill="none" xmlns="http://www.w3.org/2000/svg">
<path d="M19.2861 2.52188e-05C19.175 -0.000199623 19.0655 0.0254807 18.9661 0.0750252L13.5541 2.78303L7.43309 0.0620252C7.42309 0.0620252 7.41209 0.0570252 7.40109 0.0530252C7.37333 0.0426016 7.34494 0.0339181 7.31609 0.0270252C7.28781 0.0193294 7.25909 0.0133189 7.23009 0.00902522C7.17219 0.0042703 7.114 0.0042703 7.05609 0.00902522C7.0271 0.0133189 6.99838 0.0193294 6.97009 0.0270252C6.94159 0.0339579 6.91353 0.042641 6.88609 0.0530252C6.87509 0.0530252 6.86409 0.0530252 6.85409 0.0620252L0.424094 2.91903C0.297056 2.97456 0.188935 3.06588 0.112932 3.18184C0.0369283 3.2978 -0.00366982 3.43338 -0.00390625 3.57203L-0.00390625 19.286C-0.00345227 19.4044 0.0263957 19.5209 0.0829582 19.6249C0.139521 19.7289 0.221027 19.8172 0.32016 19.8819C0.419293 19.9467 0.53295 19.9858 0.650927 19.9957C0.768905 20.0057 0.887509 19.9862 0.996094 19.939L7.14309 17.21L13.2821 19.939C13.2931 19.939 13.3041 19.939 13.3151 19.945C13.4005 19.9833 13.4934 20.002 13.5869 20C13.6805 19.9979 13.7725 19.975 13.8561 19.933C13.8671 19.933 13.8801 19.933 13.8921 19.925L19.6061 17.068C19.7257 17.0094 19.8266 16.9185 19.8973 16.8056C19.968 16.6927 20.0057 16.5622 20.0061 16.429V0.715025C20.0062 0.62067 19.9877 0.527224 19.9515 0.440089C19.9153 0.352953 19.8622 0.273856 19.7952 0.20737C19.7283 0.140883 19.6488 0.0883267 19.5614 0.0527375C19.474 0.0171482 19.3804 -0.000767778 19.2861 2.52188e-05ZM6.42909 15.965L1.42909 18.187V4.03603L6.42909 1.81403V15.965ZM18.5721 15.988L14.2861 18.13V4.01303L18.5711 1.87003L18.5721 15.988Z" fill="white"/>
</svg>
