<svg width="22" height="24" viewBox="0 0 22 24" fill="none" xmlns="http://www.w3.org/2000/svg">
<path d="M10.975 22.059H5.148C4.38786 22.0577 3.65924 21.7551 3.12183 21.2175C2.58442 20.6799 2.28206 19.9511 2.281 19.191V5.148C2.28206 4.38786 2.58442 3.65914 3.12183 3.12154C3.65924 2.58394 4.38786 2.28132 5.148 2.28H11.069C11.2387 2.28 11.4015 2.21257 11.5215 2.09255C11.6416 1.97253 11.709 1.80974 11.709 1.64C11.709 1.47026 11.6416 1.30747 11.5215 1.18745C11.4015 1.06743 11.2387 1 11.069 1H5.148C4.04829 1.00132 2.994 1.43877 2.21638 2.21638C1.43877 2.994 1.00132 4.04829 1 5.148V19.191C1.00132 20.2907 1.43877 21.345 2.21638 22.1226C2.994 22.9002 4.04829 23.3377 5.148 23.339H10.975C11.1447 23.339 11.3075 23.2716 11.4275 23.1515C11.5476 23.0315 11.615 22.8687 11.615 22.699C11.615 22.5293 11.5476 22.3665 11.4275 22.2465C11.3075 22.1264 11.1447 22.059 10.975 22.059Z" fill="#0050A0" stroke="#0050A0" stroke-width="0.5"/>
<path d="M21.5175 11.7205L17.4495 7.65248C17.3294 7.53234 17.1664 7.46484 16.9965 7.46484C16.8266 7.46484 16.6636 7.53234 16.5435 7.65248C16.4233 7.77262 16.3559 7.93558 16.3559 8.10548C16.3559 8.27539 16.4233 8.43834 16.5435 8.55849L19.5205 11.5355H6.53648C6.36675 11.5355 6.20396 11.6029 6.08394 11.7229C5.96392 11.843 5.89648 12.0057 5.89648 12.1755C5.89648 12.3452 5.96392 12.508 6.08394 12.628C6.20396 12.7481 6.36675 12.8155 6.53648 12.8155H19.5215L16.5445 15.7925C16.4536 15.8818 16.3913 15.9962 16.3656 16.121C16.3399 16.2459 16.3519 16.3756 16.4002 16.4936C16.4484 16.6115 16.5307 16.7125 16.6366 16.7835C16.7424 16.8546 16.867 16.8925 16.9945 16.8925C17.0784 16.8927 17.1615 16.8759 17.2388 16.8433C17.3161 16.8106 17.3861 16.7627 17.4445 16.7025L21.5125 12.6345C21.5736 12.5752 21.6223 12.5044 21.6556 12.4261C21.689 12.3478 21.7065 12.2636 21.7069 12.1785C21.7074 12.0934 21.6909 12.0091 21.6584 11.9304C21.6258 11.8518 21.5779 11.7804 21.5175 11.7205Z" fill="#0050A0" stroke="#0050A0" stroke-width="0.5"/>
</svg>
