<svg width="25" height="22" viewBox="0 0 25 22" fill="none" xmlns="http://www.w3.org/2000/svg">
<path d="M24.4171 8.45056L12.7171 0.120562C12.6063 0.0421241 12.4738 0 12.3381 0C12.2023 0 12.0699 0.0421241 11.9591 0.120562L0.259064 8.45056C0.191317 8.4976 0.133776 8.55784 0.089897 8.62768C0.046018 8.69751 0.0167069 8.77549 0.00372397 8.85694C-0.0092589 8.93839 -0.00564558 9.02161 0.0143469 9.10163C0.0343394 9.18164 0.0702985 9.25679 0.120064 9.32256C0.223027 9.45774 0.374628 9.54746 0.542673 9.57267C0.710719 9.59787 0.881972 9.55658 1.02006 9.45756L12.3401 1.39756L23.6601 9.45756C23.7982 9.55658 23.9694 9.59787 24.1375 9.57267C24.3055 9.54746 24.4571 9.45774 24.5601 9.32256C24.6096 9.25655 24.6453 9.18119 24.665 9.10102C24.6847 9.02084 24.688 8.93752 24.6746 8.85605C24.6612 8.77459 24.6315 8.69667 24.5873 8.62699C24.543 8.5573 24.4851 8.49729 24.4171 8.45056Z" fill="#0050A0"/>
<path d="M21.3875 10.2032C21.3041 10.2018 21.2212 10.2167 21.1436 10.2473C21.066 10.2779 20.9952 10.3235 20.9352 10.3814C20.8752 10.4393 20.8272 10.5085 20.794 10.585C20.7608 10.6615 20.7429 10.7438 20.7415 10.8272V20.7532H15.5715V15.3352C15.5386 14.5002 15.1838 13.7103 14.5814 13.1311C13.9789 12.5519 13.1757 12.2284 12.34 12.2284C11.5043 12.2284 10.701 12.5519 10.0986 13.1311C9.49617 13.7103 9.14134 14.5002 9.10849 15.3352V20.7532H3.93848V10.8272C3.92929 10.6621 3.85723 10.5068 3.73709 10.3931C3.61695 10.2795 3.45785 10.2162 3.29248 10.2162C3.12711 10.2162 2.96802 10.2795 2.84788 10.3931C2.72774 10.5068 2.65568 10.6621 2.64648 10.8272V21.3762C2.64792 21.4596 2.66576 21.5419 2.69901 21.6184C2.73225 21.6949 2.78023 21.7641 2.84022 21.822C2.90021 21.88 2.97103 21.9255 3.04863 21.9561C3.12623 21.9867 3.20909 22.0017 3.29248 22.0002H9.75449C9.91442 22.0027 10.0694 21.945 10.1888 21.8385C10.3081 21.7319 10.3829 21.5844 10.3985 21.4252C10.3994 21.4089 10.3994 21.3925 10.3985 21.3762V15.3342C10.4147 14.8307 10.626 14.3533 10.9879 14.0029C11.3498 13.6524 11.8337 13.4565 12.3375 13.4565C12.8412 13.4565 13.3252 13.6524 13.6871 14.0029C14.0489 14.3533 14.2603 14.8307 14.2765 15.3342V21.3762C14.2756 21.3922 14.2756 21.4082 14.2765 21.4242C14.2918 21.5836 14.3666 21.7314 14.4859 21.8381C14.6052 21.9448 14.7604 22.0027 14.9205 22.0002H21.3825C21.4659 22.0017 21.5487 21.9867 21.6263 21.9561C21.7039 21.9255 21.7748 21.88 21.8347 21.822C21.8947 21.7641 21.9427 21.6949 21.976 21.6184C22.0092 21.5419 22.0271 21.4596 22.0285 21.3762V10.8272C22.0256 10.6597 21.9566 10.5001 21.8365 10.3832C21.7165 10.2663 21.555 10.2016 21.3875 10.2032Z" fill="#0050A0"/>
</svg>
