<svg width="24" height="24" viewBox="0 0 24 24" fill="none" xmlns="http://www.w3.org/2000/svg">
<g id="149150">
<path id="Path 2504" d="M12 1C9.82441 1 7.69767 1.64514 5.88873 2.85383C4.07979 4.06253 2.66989 5.78049 1.83733 7.79048C1.00477 9.80047 0.786929 12.0122 1.21137 14.146C1.6358 16.2798 2.68345 18.2398 4.22183 19.7782C5.76021 21.3166 7.72022 22.3642 9.85401 22.7886C11.9878 23.2131 14.1995 22.9952 16.2095 22.1627C18.2195 21.3301 19.9375 19.9202 21.1462 18.1113C22.3549 16.3023 23 14.1756 23 12C22.9968 9.08359 21.8369 6.28755 19.7747 4.22533C17.7125 2.16312 14.9164 1.00318 12 1V1ZM12 22.154C9.99173 22.154 8.02856 21.5585 6.35874 20.4427C4.68893 19.327 3.38746 17.7412 2.61893 15.8858C1.8504 14.0304 1.64932 11.9887 2.04111 10.0191C2.43291 8.04937 3.39998 6.2401 4.82004 4.82004C6.24011 3.39998 8.04937 2.4329 10.0191 2.04111C11.9887 1.64931 14.0304 1.8504 15.8858 2.61893C17.7412 3.38746 19.327 4.68892 20.4427 6.35874C21.5585 8.02856 22.154 9.99173 22.154 12C22.1508 14.692 21.08 17.2729 19.1765 19.1765C17.2729 21.08 14.692 22.1508 12 22.154Z" fill="#0050A0" stroke="#0050A0" stroke-width="0.5"/>
<path id="Path 2505" d="M12.0001 16.6541C11.9446 16.6541 11.8896 16.665 11.8383 16.6863C11.787 16.7075 11.7403 16.7387 11.701 16.7779C11.6618 16.8172 11.6306 16.8639 11.6093 16.9152C11.5881 16.9665 11.5771 17.0215 11.5771 17.0771V17.9231C11.5771 18.0352 11.6217 18.1428 11.701 18.2222C11.7804 18.3015 11.888 18.3461 12.0001 18.3461C12.1123 18.3461 12.2199 18.3015 12.2993 18.2222C12.3786 18.1428 12.4231 18.0352 12.4231 17.9231V17.0771C12.4231 17.0215 12.4122 16.9665 12.3909 16.9152C12.3697 16.8639 12.3385 16.8172 12.2993 16.7779C12.26 16.7387 12.2133 16.7075 12.162 16.6863C12.1107 16.665 12.0557 16.6541 12.0001 16.6541Z" fill="#0050A0" stroke="#0050A0" stroke-width="0.5"/>
<path id="Path 2506" d="M12.0472 4.80798H11.9982C11.1008 4.80851 10.2403 5.16538 9.60597 5.80013C8.97159 6.43489 8.61523 7.29557 8.61523 8.19298C8.61523 8.30517 8.6598 8.41276 8.73913 8.49209C8.81846 8.57142 8.92605 8.61598 9.03823 8.61598C9.15042 8.61598 9.25801 8.57142 9.33734 8.49209C9.41667 8.41276 9.46124 8.30517 9.46124 8.19298C9.4612 7.85655 9.52805 7.52347 9.65791 7.21311C9.78776 6.90275 9.97802 6.6213 10.2176 6.38514C10.4572 6.14897 10.7414 5.9628 11.0536 5.83745C11.3658 5.7121 11.6998 5.65008 12.0362 5.65498C12.6924 5.6767 13.3157 5.94707 13.7799 6.41128C14.2442 6.8755 14.5145 7.49884 14.5362 8.15498C14.5435 8.5861 14.4404 9.01192 14.2367 9.39192C14.0329 9.77193 13.7354 10.0935 13.3722 10.326C12.8083 10.701 12.3478 11.212 12.0332 11.8117C11.7187 12.4115 11.5601 13.0808 11.5722 13.758V14.958C11.5722 15.0702 11.6168 15.1778 11.6961 15.2571C11.7755 15.3364 11.883 15.381 11.9952 15.381C12.1074 15.381 12.215 15.3364 12.2943 15.2571C12.3737 15.1778 12.4182 15.0702 12.4182 14.958V13.758C12.4101 13.2232 12.5346 12.6948 12.7807 12.22C13.0268 11.7452 13.3867 11.3387 13.8282 11.037C14.3122 10.727 14.7088 10.2983 14.9803 9.79179C15.2518 9.28523 15.3891 8.71762 15.3792 8.14298C15.3606 7.26484 15.0037 6.42778 14.3829 5.80642C13.7621 5.18506 12.9254 4.82737 12.0472 4.80798Z" fill="#0050A0" stroke="#0050A0" stroke-width="0.5"/>
</g>
</svg>
