<svg xmlns="http://www.w3.org/2000/svg" width="17.404" height="15.15" viewBox="0 0 17.404 15.15">
  <path id="Path_25107" data-name="Path 25107" d="M9.7,5.258A7.729,7.729,0,0,1,16.68,9.61a7.632,7.632,0,0,1-1.907,2.468l1.115,1.115A9.337,9.337,0,0,0,18.4,9.61,9.362,9.362,0,0,0,6.823,4.127L8.128,5.433A8,8,0,0,1,9.7,5.258Zm-.847.9L10.493,7.8a1.977,1.977,0,0,1,1.013,1.013l1.638,1.638a3.7,3.7,0,0,0,.111-.847A3.547,3.547,0,0,0,9.7,6.05,3.357,3.357,0,0,0,8.856,6.16ZM1.8,3.573l2.12,2.12A9.286,9.286,0,0,0,1,9.61a9.356,9.356,0,0,0,8.7,5.933,9.28,9.28,0,0,0,3.418-.649L15.826,17.6l1.115-1.115L2.915,2.45ZM7.732,9.507,9.8,11.572a.4.4,0,0,1-.095.016A1.979,1.979,0,0,1,7.725,9.61C7.725,9.57,7.732,9.546,7.732,9.507Zm-2.69-2.69L6.427,8.2A3.639,3.639,0,0,0,6.142,9.61a3.564,3.564,0,0,0,4.96,3.275l.775.775a8.253,8.253,0,0,1-2.176.3A7.729,7.729,0,0,1,2.725,9.61,7.834,7.834,0,0,1,5.043,6.817Z" transform="translate(-1 -2.449)" fill="#0050a0"/>
</svg>
