<svg xmlns="http://www.w3.org/2000/svg" width="17.404" height="11.867" viewBox="0 0 17.404 11.867">
  <path id="Path_25106" data-name="Path 25106" d="M9.7,5.582A7.729,7.729,0,0,1,16.68,9.933a7.77,7.77,0,0,1-13.955,0A7.729,7.729,0,0,1,9.7,5.582M9.7,4A9.356,9.356,0,0,0,1,9.933a9.348,9.348,0,0,0,17.4,0A9.356,9.356,0,0,0,9.7,4Zm0,3.956A1.978,1.978,0,1,1,7.724,9.933,1.978,1.978,0,0,1,9.7,7.956m0-1.582a3.56,3.56,0,1,0,3.56,3.56A3.565,3.565,0,0,0,9.7,6.373Z" transform="translate(-1 -4)" fill="#0050a0"/>
</svg>
