<svg width="21" height="26" viewBox="0 0 21 26" fill="none" xmlns="http://www.w3.org/2000/svg">
<path d="M14.2849 0.19697C14.2255 0.135397 14.1541 0.0862136 14.0749 0.0523673C13.9957 0.018521 13.9103 0.000709225 13.8239 0L3.48259 0C2.56121 0.00387522 1.6786 0.364152 1.02652 1.00256C0.374433 1.64097 0.00554685 2.50593 0 3.40955V22.5865C0.00449204 23.4908 0.372913 24.3568 1.02511 24.996C1.67731 25.6353 2.56052 25.9961 3.48259 26H17.5174C18.4388 25.9961 19.3214 25.6358 19.9735 24.9974C20.6256 24.359 20.9945 23.4941 21 22.5905V7.35879C20.9944 7.19513 20.9284 7.03904 20.8142 6.91955L14.2849 0.19697ZM14.4706 2.21295L18.844 6.7147H16C15.7994 6.71548 15.6005 6.67738 15.4148 6.6026C15.2292 6.52782 15.0604 6.41782 14.9182 6.27892C14.7761 6.14002 14.6632 5.97495 14.5862 5.79318C14.5093 5.61141 14.4696 5.41652 14.4696 5.2197L14.4706 2.21295ZM17.5184 24.7364H3.48259C2.90078 24.7326 2.34382 24.5046 1.93184 24.1017C1.51987 23.6988 1.28589 23.1532 1.28037 22.5826V3.40955C1.28589 2.83896 1.51987 2.29337 1.93184 1.89044C2.34382 1.48751 2.90078 1.25953 3.48259 1.25568H13.1893V5.2197C13.1887 5.58165 13.2612 5.94014 13.4024 6.27455C13.5436 6.60896 13.7508 6.91271 14.0121 7.16833C14.2734 7.42395 14.5836 7.6264 14.9249 7.76404C15.2663 7.90168 15.632 7.97181 16.0011 7.97038H19.7166V22.5865C19.7132 23.1572 19.4803 23.7036 19.0685 24.1068C18.6567 24.5101 18.0993 24.7378 17.5174 24.7404L17.5184 24.7364Z" fill="#0050A0"/>
<path d="M9.9424 11.0338C10.0019 10.9705 10.0742 10.9199 10.1547 10.8853C10.2351 10.8507 10.322 10.8329 10.4099 10.8329C10.4977 10.8329 10.5846 10.8507 10.6651 10.8853C10.7455 10.9199 10.8178 10.9705 10.8773 11.0338L14.629 14.984C14.6862 15.0442 14.7307 15.1149 14.7601 15.192C14.7894 15.2691 14.8029 15.351 14.7999 15.4332C14.797 15.5155 14.7775 15.5963 14.7427 15.6711C14.7078 15.746 14.6583 15.8134 14.5969 15.8694C14.5355 15.9255 14.4635 15.9691 14.3849 15.9979C14.3063 16.0267 14.2227 16.04 14.1389 16.037C14.055 16.0341 13.9726 16.015 13.8963 15.9808C13.82 15.9467 13.7513 15.8981 13.6941 15.8379L11.05 13.0557V19.9132C11.0535 19.9977 11.0394 20.0821 11.0088 20.1612C10.9782 20.2403 10.9316 20.3125 10.8718 20.3735C10.812 20.4345 10.7403 20.483 10.6609 20.5162C10.5815 20.5493 10.4961 20.5664 10.4099 20.5664C10.3236 20.5664 10.2382 20.5493 10.1588 20.5162C10.0795 20.483 10.0077 20.4345 9.94795 20.3735C9.88816 20.3125 9.84156 20.2403 9.81093 20.1612C9.7803 20.0821 9.76626 19.9977 9.76968 19.9132V13.0528L7.13162 15.835C7.01616 15.9565 6.85619 16.0282 6.68688 16.0341C6.51758 16.04 6.35282 15.9797 6.22884 15.8665C6.10486 15.7532 6.03182 15.5963 6.0258 15.4303C6.01977 15.2643 6.08125 15.1027 6.1967 14.9811L9.9424 11.0338Z" fill="#0050A0"/>
</svg>
